<svg width="39" height="32" viewBox="0 0 39 32" fill="none" xmlns="http://www.w3.org/2000/svg">
<g clip-path="url(#clip0_1567_29772)">
<path d="M18.6019 13.4675V15.7248C18.6019 15.7787 18.6386 15.8223 18.684 15.8223C18.7294 15.8223 18.7661 15.7787 18.7661 15.7248V13.4675C18.7661 13.4136 18.7294 13.37 18.684 13.37C18.6386 13.37 18.6019 13.4136 18.6019 13.4675ZM19.9688 13.4675V15.7248C19.9688 15.7787 20.0056 15.8223 20.0509 15.8223C20.0963 15.8223 20.1331 15.7787 20.1331 15.7248V13.4675C20.1331 13.4136 20.0963 13.37 20.0509 13.37C20.0056 13.37 19.9688 13.4136 19.9688 13.4675ZM17.2349 13.4675V15.7248C17.2349 15.7787 17.2717 15.8223 17.3171 15.8223C17.3624 15.8223 17.3992 15.7787 17.3992 15.7248V13.4675C17.3992 13.4136 17.3624 13.37 17.3171 13.37C17.2717 13.37 17.2349 13.4136 17.2349 13.4675ZM22.7033 13.4675V15.7248C22.7033 15.7787 22.74 15.8223 22.7854 15.8223C22.8308 15.8223 22.8675 15.7787 22.8675 15.7248V13.4675C22.8675 13.4136 22.8308 13.37 22.7854 13.37C22.74 13.37 22.7033 13.4136 22.7033 13.4675ZM21.3358 13.4675V15.7248C21.3358 15.7787 21.3725 15.8223 21.4179 15.8223C21.4633 15.8223 21.5 15.7787 21.5 15.7248V13.4675C21.5 13.4136 21.4633 13.37 21.4179 13.37C21.3725 13.37 21.3358 13.4136 21.3358 13.4675ZM15.868 13.4675V15.7248C15.868 15.7787 15.9048 15.8223 15.9501 15.8223C15.9955 15.8223 16.0323 15.7787 16.0323 15.7248V13.4675C16.0323 13.4136 15.9955 13.37 15.9501 13.37C15.9048 13.37 15.868 13.4136 15.868 13.4675ZM13.836 16.1852C13.836 16.239 13.8727 16.2827 13.9181 16.2827H26.1838C26.2292 16.2827 26.2659 16.239 26.2659 16.1852C26.2659 16.1313 26.2292 16.0876 26.1838 16.0876H13.9181C13.8727 16.0876 13.836 16.1313 13.836 16.1852ZM24.0702 13.4675V15.7248C24.0702 15.7787 24.107 15.8223 24.1523 15.8223C24.1977 15.8223 24.2345 15.7787 24.2345 15.7248V13.4675C24.2345 13.4136 24.1977 13.37 24.1523 13.37C24.107 13.37 24.0702 13.4136 24.0702 13.4675ZM7.65027 23.2804C7.65027 22.8037 7.32347 22.4156 6.922 22.4156C6.725 22.4156 6.54064 22.507 6.40279 22.6741C6.37121 22.7123 6.3712 22.7743 6.40394 22.8125C6.43668 22.8507 6.48837 22.85 6.51996 22.8112C6.62679 22.6823 6.7698 22.6113 6.922 22.6113C7.2333 22.6113 7.48601 22.9121 7.48601 23.281V24.9505H6.358V23.281C6.358 23.2272 6.32124 23.1835 6.27586 23.1835C6.23049 23.1835 6.19373 23.2272 6.19373 23.281V25.1462H7.65085V23.281L7.65027 23.2804ZM13.6166 16.2049C13.6619 16.2049 13.6987 16.1613 13.6987 16.1074V15.1404H8.28664V17.0594C8.28664 17.1133 8.3234 17.157 8.36878 17.157C8.41415 17.157 8.45091 17.1133 8.45091 17.0594V15.3361H13.5339V16.1081C13.5339 16.162 13.5706 16.2056 13.616 16.2056L13.6166 16.2049ZM8.46584 14.3016H13.5201L13.5442 14.2722C13.7584 14.0117 13.8716 13.7096 13.8716 13.398C13.8716 12.9063 13.4069 12.3266 13.1301 12.0251C12.7631 11.6248 12.3071 11.2504 11.8459 10.9701C11.8057 10.9456 11.7557 10.9647 11.735 11.0124C11.7143 11.0602 11.7304 11.1195 11.7706 11.144C12.2192 11.4168 12.662 11.781 13.0187 12.169C13.4494 12.6389 13.7067 13.0979 13.7067 13.398C13.7067 13.6496 13.6206 13.8876 13.45 14.1065H8.53591C8.36533 13.8883 8.27918 13.6496 8.27918 13.398C8.27918 13.0979 8.53648 12.6382 8.96724 12.169C9.32391 11.7803 9.76673 11.4162 10.2153 11.144C10.2555 11.1195 10.2716 11.0608 10.2509 11.0124C10.2302 10.9647 10.1808 10.9456 10.1401 10.9701C9.67886 11.2504 9.22283 11.6255 8.85582 12.0251C8.57899 12.3266 8.11434 12.9069 8.11434 13.398C8.11434 13.7096 8.22749 14.0117 8.44172 14.2722L8.46584 14.3016ZM10.6007 10.889C10.6461 10.889 10.6828 10.8453 10.6828 10.7915V9.72214C10.6828 9.5196 10.8218 9.35456 10.9924 9.35456C11.163 9.35456 11.302 9.5196 11.302 9.72214V10.6939H10.8597C10.8143 10.6939 10.7776 10.7376 10.7776 10.7915C10.7776 10.8453 10.8143 10.889 10.8597 10.889H11.4662V9.72214C11.4662 9.41184 11.2537 9.15883 10.9918 9.15883C10.7299 9.15883 10.5174 9.41116 10.5174 9.72214V10.7915C10.5174 10.8453 10.5542 10.889 10.5995 10.889H10.6007ZM31.7337 17.157C31.7791 17.157 31.8158 17.1133 31.8158 17.0594V15.1404H26.4038V16.1074C26.4038 16.1613 26.4405 16.2049 26.4859 16.2049C26.5313 16.2049 26.568 16.1613 26.568 16.1074V15.3354H31.651V17.0588C31.651 17.1126 31.6877 17.1563 31.7331 17.1563L31.7337 17.157ZM25.2424 15.823C25.2878 15.823 25.3246 15.7794 25.3246 15.7255V12.2666H14.7773V15.7255C14.7773 15.7794 14.8141 15.823 14.8594 15.823C14.9048 15.823 14.9416 15.7794 14.9416 15.7255V12.4623H25.1597V15.7255C25.1597 15.7794 25.1965 15.823 25.2419 15.823H25.2424ZM26.583 14.3016H31.6372L31.6613 14.2722C31.8756 14.0117 31.9887 13.7096 31.9887 13.398C31.9887 12.9063 31.5241 12.3266 31.2472 12.0251C30.8802 11.6248 30.4242 11.2504 29.963 10.9701C29.9222 10.9456 29.8728 10.9647 29.8521 11.0124C29.8315 11.0602 29.8475 11.1195 29.8877 11.144C30.3363 11.4168 30.7791 11.781 31.1358 12.169C31.5666 12.6389 31.8239 13.0979 31.8239 13.398C31.8239 13.6496 31.7377 13.8876 31.5671 14.1065H26.653C26.4825 13.8883 26.3963 13.6496 26.3963 13.398C26.3963 13.0979 26.6536 12.6382 27.0844 12.169C27.441 11.7803 27.8839 11.4162 28.3324 11.144C28.3726 11.1195 28.3887 11.0608 28.368 11.0124C28.3474 10.9647 28.298 10.9456 28.2572 10.9701C27.796 11.2504 27.34 11.6255 26.9729 12.0251C26.6961 12.3273 26.2315 12.9069 26.2315 13.398C26.2315 13.7096 26.3446 14.0117 26.5588 14.2722L26.583 14.3016ZM7.37344 17.5402H12.4845L11.685 18.9048H28.418L27.6185 17.5402H32.7296C32.775 17.5402 32.8117 17.4966 32.8117 17.4427C32.8117 17.3888 32.775 17.3452 32.7296 17.3452H27.5461C27.5329 17.3452 27.5209 17.3493 27.51 17.3554L27.2854 16.9721H14.7641C14.7187 16.9721 14.682 17.0158 14.682 17.0697C14.682 17.1235 14.7187 17.1672 14.7641 17.1672H27.1992L28.1033 18.7098H11.9998L12.9038 17.1672H14.1352C14.1806 17.1672 14.2173 17.1235 14.2173 17.0697C14.2173 17.0158 14.1806 16.9721 14.1352 16.9721H12.8176L12.5931 17.3554C12.5822 17.3493 12.5701 17.3452 12.5569 17.3452H7.37344C7.32806 17.3452 7.29131 17.3888 7.29131 17.4427C7.29131 17.4966 7.32806 17.5402 7.37344 17.5402ZM29.3243 10.7915C29.3243 10.7376 29.2876 10.6939 29.2422 10.6939H28.7999V9.72214C28.7999 9.5196 28.9389 9.35456 29.1095 9.35456C29.2801 9.35456 29.4191 9.5196 29.4191 9.72214V10.7915C29.4191 10.8453 29.4558 10.889 29.5012 10.889C29.5466 10.889 29.5833 10.8453 29.5833 10.7915V9.72214C29.5833 9.41184 29.3708 9.15883 29.1089 9.15883C28.847 9.15883 28.6345 9.41116 28.6345 9.72214V10.889H29.241C29.2864 10.889 29.3232 10.8453 29.3232 10.7915H29.3243ZM32.0559 19.0201C32.0559 19.074 32.0927 19.1176 32.138 19.1176H38.8521C38.8975 19.1176 38.9342 19.074 38.9342 19.0201C38.9342 18.9662 38.8975 18.9226 38.8521 18.9226H32.138C32.0927 18.9226 32.0559 18.9662 32.0559 19.0201ZM31.9215 14.708C31.9215 14.6541 31.8847 14.6105 31.8394 14.6105H26.3808C26.3354 14.6105 26.2987 14.6541 26.2987 14.708C26.2987 14.7619 26.3354 14.8055 26.3808 14.8055H31.8394C31.8847 14.8055 31.9215 14.7619 31.9215 14.708ZM14.1605 11.9474H25.9414C25.9868 11.9474 26.0236 11.9038 26.0236 11.8499C26.0236 11.796 25.9868 11.7524 25.9414 11.7524H14.1605C14.1151 11.7524 14.0783 11.796 14.0783 11.8499C14.0783 11.9038 14.1151 11.9474 14.1605 11.9474ZM19.3531 2.92837C19.3985 2.92837 19.4352 2.88473 19.4352 2.83085V0.926795C19.4352 0.523751 19.7115 0.195725 20.0509 0.195725C20.3904 0.195725 20.6666 0.523751 20.6666 0.926795V2.73333H19.8155C19.7701 2.73333 19.7333 2.77698 19.7333 2.83085C19.7333 2.88473 19.7701 2.92837 19.8155 2.92837H20.8315V0.926795C20.8315 0.416 20.4817 0 20.0509 0C19.6202 0 19.2704 0.415318 19.2704 0.926795V2.83085C19.2704 2.88473 19.3072 2.92837 19.3525 2.92837H19.3531ZM14.9697 9.68259H15.6113V11.1816C15.6113 11.2354 15.648 11.2791 15.6934 11.2791C15.7388 11.2791 15.7755 11.2354 15.7755 11.1816V9.68259H24.3264V11.1816C24.3264 11.2354 24.3631 11.2791 24.4085 11.2791C24.4539 11.2791 24.4906 11.2354 24.4906 11.1816V9.68259H25.1322C25.1775 9.68259 25.2143 9.63894 25.2143 9.58506C25.2143 9.53119 25.1775 9.48754 25.1322 9.48754H14.9686C14.9232 9.48754 14.8864 9.53119 14.8864 9.58506C14.8864 9.63894 14.9232 9.68259 14.9686 9.68259H14.9697ZM38.8521 21.2079H32.1398C32.0944 21.2079 32.0576 21.2515 32.0576 21.3054C32.0576 21.3592 32.0944 21.4029 32.1398 21.4029H38.8521C38.8975 21.4029 38.9342 21.3592 38.9342 21.3054C38.9342 21.2515 38.8975 21.2079 38.8521 21.2079ZM15.5791 9.00403H24.5234L24.5475 8.9747C24.9168 8.52529 25.1115 8.00563 25.1115 7.47165C25.1115 7.04814 24.9007 6.52439 24.5061 5.94745C24.4998 5.92835 24.4883 5.91198 24.474 5.90039C24.2902 5.63715 24.0691 5.363 23.8118 5.08271C23.1622 4.37483 22.3552 3.71195 21.5391 3.21548C21.4989 3.19093 21.4489 3.21002 21.4282 3.25776C21.4075 3.3055 21.4236 3.36483 21.4638 3.38938C22.2668 3.87767 23.0611 4.53032 23.7003 5.22661C23.9054 5.45029 24.0874 5.67057 24.2454 5.8847H15.8554C16.0133 5.67057 16.1954 5.45029 16.4004 5.22661C17.0391 4.53032 17.8334 3.87767 18.6369 3.38938C18.6771 3.36483 18.6932 3.30618 18.6725 3.25776C18.6518 3.21002 18.6024 3.19093 18.5617 3.21548C17.7455 3.71195 16.9386 4.37483 16.289 5.08271C16.0351 5.35891 15.8152 5.63306 15.6314 5.89766C15.613 5.90994 15.5992 5.92971 15.5929 5.95427C15.2035 6.52848 14.9892 7.05701 14.9892 7.47165C14.9892 8.00563 15.1845 8.52529 15.5533 8.9747L15.5774 9.00403H15.5791ZM15.7181 6.07975H24.3838C24.7474 6.61441 24.9467 7.09861 24.9467 7.47096C24.9467 7.94834 24.7807 8.39776 24.4533 8.8083H15.6486C15.3212 8.39844 15.1552 7.94834 15.1552 7.47096C15.1552 7.09861 15.3551 6.61441 15.7181 6.07975ZM13.8044 14.708C13.8044 14.6541 13.7676 14.6105 13.7222 14.6105H8.26367C8.2183 14.6105 8.18154 14.6541 8.18154 14.708C8.18154 14.7619 8.2183 14.8055 8.26367 14.8055H13.7222C13.7676 14.8055 13.8044 14.7619 13.8044 14.708ZM15.752 20.189V29.6683C15.752 29.7222 15.7887 29.7659 15.8341 29.7659C15.8795 29.7659 15.9162 29.7222 15.9162 29.6683V20.189C15.9162 20.1351 15.8795 20.0915 15.8341 20.0915C15.7887 20.0915 15.752 20.1351 15.752 20.189ZM5.45455 28.0719C5.49992 28.0719 5.53668 28.0282 5.53668 27.9743V26.4774C5.53668 26.0007 5.20988 25.6127 4.80841 25.6127C4.40695 25.6127 4.08014 26.0007 4.08014 26.4774V29.6724H5.53726V28.4551C5.53726 28.4013 5.5005 28.3576 5.45513 28.3576C5.40975 28.3576 5.37299 28.4013 5.37299 28.4551V29.4774H4.24498V26.4774C4.24498 26.1078 4.49827 25.8077 4.80899 25.8077C5.11971 25.8077 5.37299 26.1085 5.37299 26.4774V27.9743C5.37299 28.0282 5.40975 28.0719 5.45513 28.0719H5.45455ZM17.5755 20.189V29.6683C17.5755 29.7222 17.6123 29.7659 17.6577 29.7659C17.703 29.7659 17.7398 29.7222 17.7398 29.6683V20.189C17.7398 20.1351 17.703 20.0915 17.6577 20.0915C17.6123 20.0915 17.5755 20.1351 17.5755 20.189ZM22.3627 20.189V29.6683C22.3627 29.7222 22.3994 29.7659 22.4448 29.7659C22.4902 29.7659 22.5269 29.7222 22.5269 29.6683V20.189C22.5269 20.1351 22.4902 20.0915 22.4448 20.0915C22.3994 20.0915 22.3627 20.1351 22.3627 20.189ZM30.6177 24.3169H28.6064V28.1332H30.6177V24.3169ZM30.4529 27.9382H28.7706V24.512H30.4529V27.9382ZM24.1857 20.189V29.6683C24.1857 29.7222 24.2224 29.7659 24.2678 29.7659C24.3132 29.7659 24.3499 29.7222 24.3499 29.6683V20.189C24.3499 20.1351 24.3132 20.0915 24.2678 20.0915C24.2224 20.0915 24.1857 20.1351 24.1857 20.189ZM6.27586 27.0366C6.23049 27.0366 6.19373 27.0803 6.19373 27.1342V29.6724H7.65085V26.4774C7.65085 26.0007 7.32404 25.6127 6.92258 25.6127C6.52111 25.6127 6.19431 26.0007 6.19431 26.4774C6.19431 26.5313 6.23107 26.5749 6.27644 26.5749C6.32181 26.5749 6.35857 26.5313 6.35857 26.4774C6.35857 26.1078 6.61186 25.8077 6.92258 25.8077C7.2333 25.8077 7.48658 26.1085 7.48658 26.4774V29.4774H6.35857V27.1348C6.35857 27.081 6.32181 27.0373 6.27644 27.0373L6.27586 27.0366ZM5.45455 24.2651C5.49992 24.2651 5.53668 24.2215 5.53668 24.1676V23.281C5.53668 22.8043 5.20988 22.4163 4.80841 22.4163C4.40695 22.4163 4.08014 22.8043 4.08014 23.281V25.1462H5.45513C5.5005 25.1462 5.53726 25.1026 5.53726 25.0487C5.53726 24.9948 5.5005 24.9512 5.45513 24.9512H4.24498V23.2817C4.24498 22.9121 4.49827 22.612 4.80899 22.612C5.11971 22.612 5.37299 22.9128 5.37299 23.2817V24.1683C5.37299 24.2222 5.40975 24.2658 5.45513 24.2658L5.45455 24.2651ZM0.0821317 21.4029H7.96271C8.00809 21.4029 8.04485 21.3592 8.04485 21.3054C8.04485 21.2515 8.00809 21.2079 7.96271 21.2079H0.0821317C0.0367585 21.2079 0 21.2515 0 21.3054C0 21.3592 0.0367585 21.4029 0.0821317 21.4029ZM30.6177 20.9583C30.6177 20.3002 30.1669 19.7641 29.6121 19.7641C29.0572 19.7641 28.6064 20.2995 28.6064 20.9583V23.5811H30.6177V20.9583ZM30.4529 23.3854H28.7706V20.9583C28.7706 20.4079 29.148 19.9598 29.6115 19.9598C30.075 19.9598 30.4523 20.4079 30.4523 20.9583V23.3854H30.4529ZM0.0821317 19.1176H7.96444C8.00981 19.1176 8.04657 19.074 8.04657 19.0201C8.04657 18.9662 8.00981 18.9226 7.96444 18.9226H0.0821317C0.0367585 18.9226 0 18.9662 0 19.0201C0 19.074 0.0367585 19.1176 0.0821317 19.1176ZM33.1805 22.6107C33.3327 22.6107 33.4757 22.6816 33.5825 22.8105C33.6141 22.8487 33.6664 22.8493 33.6985 22.8118C33.7307 22.7743 33.7313 22.7123 33.6997 22.6734C33.5618 22.507 33.3769 22.4149 33.1805 22.4149C32.779 22.4149 32.4522 22.803 32.4522 23.2797V25.1449H33.9093V23.2797C33.9093 23.2258 33.8726 23.1821 33.8272 23.1821C33.7818 23.1821 33.745 23.2258 33.745 23.2797V24.9491H32.617V23.2797C32.617 22.91 32.8703 22.61 33.181 22.61L33.1805 22.6107ZM11.4961 20.9583C11.4961 20.3002 11.0452 19.7641 10.4904 19.7641C9.93559 19.7641 9.48473 20.2995 9.48473 20.9583V23.5811H11.4961V20.9583ZM11.3318 23.3854H9.64956V20.9583C9.64956 20.4079 10.0269 19.9598 10.4904 19.9598C10.9539 19.9598 11.3312 20.4079 11.3312 20.9583V23.3854H11.3318ZM10.5886 30.3299H29.5144C29.5598 30.3299 29.5966 30.2862 29.5966 30.2323C29.5966 30.1785 29.5598 30.1348 29.5144 30.1348H10.5886C10.5432 30.1348 10.5065 30.1785 10.5065 30.2323C10.5065 30.2862 10.5432 30.3299 10.5886 30.3299ZM32.4522 29.6718H33.9093V27.1335C33.9093 27.0796 33.8726 27.036 33.8272 27.036C33.7818 27.036 33.745 27.0796 33.745 27.1335V29.476H32.617V26.4761C32.617 26.1064 32.8703 25.8064 33.181 25.8064C33.4918 25.8064 33.745 26.1071 33.745 26.4761C33.745 26.5299 33.7818 26.5736 33.8272 26.5736C33.8726 26.5736 33.9093 26.5299 33.9093 26.4761C33.9093 25.9994 33.5825 25.6113 33.181 25.6113C32.7796 25.6113 32.4528 25.9994 32.4528 26.4761V29.6711L32.4522 29.6718ZM27.5662 19.4388H12.5368C12.4914 19.4388 12.4547 19.4825 12.4547 19.5363C12.4547 19.5902 12.4914 19.6339 12.5368 19.6339H27.5662C27.6116 19.6339 27.6484 19.5902 27.6484 19.5363C27.6484 19.4825 27.6116 19.4388 27.5662 19.4388ZM34.6479 28.3569C34.6025 28.3569 34.5658 28.4006 34.5658 28.4544V29.6718H36.0229V26.4767C36.0229 26 35.6961 25.612 35.2946 25.612C34.8932 25.612 34.5664 26 34.5664 26.4767V27.9737C34.5664 28.0275 34.6031 28.0712 34.6485 28.0712C34.6939 28.0712 34.7306 28.0275 34.7306 27.9737V26.4767C34.7306 26.1071 34.9839 25.807 35.2946 25.807C35.6053 25.807 35.8586 26.1078 35.8586 26.4767V29.4767H34.7306V28.4544C34.7306 28.4006 34.6939 28.3569 34.6485 28.3569H34.6479ZM9.48473 28.1332H11.4961V24.3169H9.48473V28.1332ZM9.64956 24.512H11.3318V27.9382H9.64956V24.512ZM34.6479 24.9505C34.6025 24.9505 34.5658 24.9941 34.5658 25.048C34.5658 25.1019 34.6025 25.1455 34.6479 25.1455H36.0229V23.2804C36.0229 22.8037 35.6961 22.4156 35.2946 22.4156C34.8932 22.4156 34.5664 22.8037 34.5664 23.2804V24.1669C34.5664 24.2208 34.6031 24.2644 34.6485 24.2644C34.6939 24.2644 34.7306 24.2208 34.7306 24.1669V23.2804C34.7306 22.9107 34.9839 22.6107 35.2946 22.6107C35.6053 22.6107 35.8586 22.9114 35.8586 23.2804V24.9498H34.6485L34.6479 24.9505ZM38.8521 31.805H0.0821317C0.0367585 31.805 0 31.8486 0 31.9025C0 31.9564 0.0367585 32 0.0821317 32H38.8527C38.8981 32 38.9348 31.9564 38.9348 31.9025C38.9348 31.8486 38.8981 31.805 38.8527 31.805H38.8521ZM25.7973 20.0901V29.667C25.7973 29.7209 25.834 29.7645 25.8794 29.7645C25.9248 29.7645 25.9615 29.7209 25.9615 29.667V28.9005H27.4893V29.667C27.4893 29.7209 27.526 29.7645 27.5714 29.7645C27.6168 29.7645 27.6535 29.7209 27.6535 29.667V28.9005H27.8109C27.8563 28.9005 27.893 28.8568 27.893 28.8029C27.893 28.7491 27.8563 28.7054 27.8109 28.7054H27.6535V21.7507H27.8109C27.8563 21.7507 27.893 21.7071 27.893 21.6532C27.893 21.5993 27.8563 21.5557 27.8109 21.5557H27.6535V20.0908H25.7973V20.0901ZM27.4893 28.7054H25.9615V21.7507H27.4893V28.7054ZM27.4893 21.555H25.9615V20.2851H27.4893V21.555ZM12.291 28.7054C12.2456 28.7054 12.2088 28.7491 12.2088 28.8029C12.2088 28.8568 12.2456 28.9005 12.291 28.9005H12.4483V29.667C12.4483 29.7209 12.4851 29.7645 12.5305 29.7645C12.5759 29.7645 12.6126 29.7209 12.6126 29.667V28.9005H14.1404V29.667C14.1404 29.7209 14.1771 29.7645 14.2225 29.7645C14.2679 29.7645 14.3046 29.7209 14.3046 29.667V20.0901H12.4483V21.555H12.291C12.2456 21.555 12.2088 21.5986 12.2088 21.6525C12.2088 21.7064 12.2456 21.75 12.291 21.75H12.4483V28.7047H12.291V28.7054ZM12.6132 20.2851H14.1409V21.555H12.6132V20.2851ZM12.6132 21.75H14.1409V28.7047H12.6132V21.75ZM38.8521 30.7295H31.8158V17.8567C31.8158 17.8028 31.7791 17.7591 31.7337 17.7591C31.6883 17.7591 31.6516 17.8028 31.6516 17.8567V30.7295H8.45148V17.8567C8.45148 17.8028 8.41472 17.7591 8.36935 17.7591C8.32398 17.7591 8.28722 17.8028 8.28722 17.8567V30.7295H0.0827058C0.0373325 30.7295 0.000574906 30.7731 0.000574906 30.827C0.000574906 30.8809 0.0373325 30.9245 0.0827058 30.9245H38.8533C38.8986 30.9245 38.9354 30.8809 38.9354 30.827C38.9354 30.7731 38.8986 30.7295 38.8533 30.7295H38.8521Z" fill="#303030" stroke="#303030" stroke-width="0.4"/>
</g>
<defs>
<clipPath id="clip0_1567_29772">
<rect width="38.9354" height="32" fill="white"/>
</clipPath>
</defs>
</svg>
