<svg width="48" height="32" viewBox="0 0 48 32" fill="none" xmlns="http://www.w3.org/2000/svg">
<g clip-path="url(#clip0_1567_29762)">
<path d="M44.241 13.8728H42.2302L40.7383 18.2965H45.7335L44.2416 13.8728H44.241ZM42.3464 14.0763H44.1247L45.4794 18.0923H40.9918L42.3464 14.0763ZM26.8194 19.2107C26.8194 19.2669 26.8577 19.3124 26.905 19.3124H40.428C40.4753 19.3124 40.5136 19.2669 40.5136 19.2107C40.5136 19.1545 40.4753 19.1089 40.428 19.1089H26.905C26.8577 19.1089 26.8194 19.1545 26.8194 19.2107ZM44.2302 12.8526C44.2302 12.7964 44.1918 12.7509 44.1445 12.7509C44.0972 12.7509 44.0588 12.7964 44.0588 12.8526V13.4972H43.3219V12.8526C43.3219 12.7964 43.2835 12.7509 43.2362 12.7509C43.1889 12.7509 43.1505 12.7964 43.1505 12.8526V13.4972H42.4136V12.8526C42.4136 12.7964 42.3752 12.7509 42.3279 12.7509C42.2805 12.7509 42.2422 12.7964 42.2422 12.8526V13.7014H44.2308V12.8526H44.2302ZM28.1848 23.6329C27.8577 23.6329 27.5923 23.9488 27.5923 24.3365V25.9529H27.4335C27.3862 25.9529 27.3478 25.9984 27.3478 26.0546C27.3478 26.1108 27.3862 26.1563 27.4335 26.1563H40.0996C40.1469 26.1563 40.1853 26.1108 40.1853 26.0546C40.1853 25.9984 40.1469 25.9529 40.0996 25.9529H39.7413V24.3365C39.7413 23.9481 39.4753 23.6329 39.1488 23.6329C38.8222 23.6329 38.5562 23.9488 38.5562 24.3365V25.9529H37.9145V24.3365C37.9145 23.9481 37.6485 23.6329 37.3219 23.6329C36.9954 23.6329 36.7294 23.9488 36.7294 24.3365V25.9529H36.0877V24.3365C36.0877 23.9481 35.8217 23.6329 35.4951 23.6329C35.1686 23.6329 34.9026 23.9488 34.9026 24.3365V25.9529H34.2609V24.3365C34.2609 23.9481 33.9948 23.6329 33.6683 23.6329C33.3418 23.6329 33.0757 23.9488 33.0757 24.3365V25.9529H32.434V24.3365C32.434 23.9481 32.168 23.6329 31.8415 23.6329C31.5149 23.6329 31.2489 23.9488 31.2489 24.3365V25.9529H30.6072V24.3365C30.6072 23.9481 30.3412 23.6329 30.0146 23.6329C29.6881 23.6329 29.4221 23.9488 29.4221 24.3365V25.9529H28.7804V24.3365C28.7804 23.9481 28.5144 23.6329 28.1878 23.6329H28.1848ZM38.727 24.3365C38.727 24.0605 38.9157 23.8364 39.1482 23.8364C39.3806 23.8364 39.5694 24.0605 39.5694 24.3365V25.9529H38.727V24.3365ZM36.9001 24.3365C36.9001 24.0605 37.0889 23.8364 37.3213 23.8364C37.5538 23.8364 37.7425 24.0605 37.7425 24.3365V25.9529H36.9001V24.3365ZM35.0727 24.3365C35.0727 24.0605 35.2614 23.8364 35.4939 23.8364C35.7264 23.8364 35.9151 24.0605 35.9151 24.3365V25.9529H35.0727V24.3365ZM33.2453 24.3365C33.2453 24.0605 33.434 23.8364 33.6665 23.8364C33.899 23.8364 34.0877 24.0605 34.0877 24.3365V25.9529H33.2453V24.3365ZM31.4185 24.3365C31.4185 24.0605 31.6072 23.8364 31.8397 23.8364C32.0721 23.8364 32.2609 24.0605 32.2609 24.3365V25.9529H31.4185V24.3365ZM29.591 24.3365C29.591 24.0605 29.7798 23.8364 30.0122 23.8364C30.2447 23.8364 30.4335 24.0605 30.4335 24.3365V25.9529H29.591V24.3365ZM28.606 25.9529H27.7636V24.3365C27.7636 24.0605 27.9524 23.8364 28.1848 23.8364C28.4173 23.8364 28.606 24.0605 28.606 24.3365V25.9529ZM25.6588 8.0932C25.6588 8.1494 25.6971 8.19493 25.7445 8.19493H27.1962C27.2436 8.19493 27.2819 8.1494 27.2819 8.0932C27.2819 8.03699 27.2436 7.99146 27.1962 7.99146H25.7445C25.6971 7.99146 25.6588 8.03699 25.6588 8.0932ZM40.428 22.0628H26.905C26.8577 22.0628 26.8194 22.1083 26.8194 22.1645C26.8194 22.2207 26.8577 22.2663 26.905 22.2663H40.428C40.4753 22.2663 40.5136 22.2207 40.5136 22.1645C40.5136 22.1083 40.4753 22.0628 40.428 22.0628ZM26.8194 26.9126C26.8194 26.9688 26.8577 27.0143 26.905 27.0143H40.428C40.4753 27.0143 40.5136 26.9688 40.5136 26.9126C40.5136 26.8564 40.4753 26.8109 40.428 26.8109H26.905C26.8577 26.8109 26.8194 26.8564 26.8194 26.9126ZM22.4276 18.8628C21.8913 18.8628 21.4545 19.3814 21.4545 20.0181V22.9229H21.0249C20.9776 22.9229 20.9393 22.9684 20.9393 23.0246C20.9393 23.0808 20.9776 23.1264 21.0249 23.1264H26.1489C26.1962 23.1264 26.2346 23.0808 26.2346 23.0246C26.2346 22.9684 26.1962 22.9229 26.1489 22.9229H25.7942V20.0181C25.7942 19.3814 25.3574 18.8628 24.8212 18.8628C24.2849 18.8628 23.8481 19.3814 23.8481 20.0181V22.9229H23.4V20.0181C23.4 19.3814 22.9632 18.8628 22.427 18.8628H22.4276ZM24.0201 20.0181C24.0201 19.4931 24.3796 19.0663 24.8218 19.0663C25.2639 19.0663 25.6234 19.4931 25.6234 20.0181V22.9229H24.0207V20.0181H24.0201ZM23.2286 22.9229H21.6259V20.0181C21.6259 19.4931 21.9854 19.0663 22.4276 19.0663C22.8697 19.0663 23.2292 19.4931 23.2292 20.0181V22.9229H23.2286ZM4.93224 12.8526C4.93224 12.7964 4.89389 12.7509 4.84656 12.7509C4.79923 12.7509 4.76088 12.7964 4.76088 12.8526V13.4972H4.02392V12.8526C4.02392 12.7964 3.98558 12.7509 3.93824 12.7509C3.89091 12.7509 3.85256 12.7964 3.85256 12.8526V13.4972H3.1156V12.8526C3.1156 12.7964 3.07726 12.7509 3.02992 12.7509C2.98259 12.7509 2.94424 12.7964 2.94424 12.8526V13.7014H4.93284V12.8526H4.93224ZM46.3662 31.7965H9.75963C9.71229 31.7965 9.67395 31.8421 9.67395 31.8983C9.67395 31.9545 9.71229 32 9.75963 32H46.3668C46.4141 32 46.4525 31.9545 46.4525 31.8983C46.4525 31.8421 46.4141 31.7965 46.3668 31.7965H46.3662ZM8.68714 31.7965H0.80766C0.760327 31.7965 0.721981 31.8421 0.721981 31.8983C0.721981 31.9545 0.760327 32 0.80766 32H8.68714C8.73447 32 8.77282 31.9545 8.77282 31.8983C8.77282 31.8421 8.73447 31.7965 8.68714 31.7965ZM4.94362 13.8728H2.93286L1.44097 18.2965H6.43612L4.94422 13.8728H4.94362ZM3.0485 14.0763H4.82679L6.18148 18.0923H1.69381L3.0485 14.0763ZM20.2688 22.0628H6.74588C6.69855 22.0628 6.6602 22.1083 6.6602 22.1645C6.6602 22.2207 6.69855 22.2663 6.74588 22.2663H20.2688C20.3161 22.2663 20.3545 22.2207 20.3545 22.1645C20.3545 22.1083 20.3161 22.0628 20.2688 22.0628ZM47.0858 31.1498H45.6921V20.1213H45.8892C45.9366 20.1213 45.9749 20.0758 45.9749 20.0196C45.9749 19.9634 45.9366 19.9178 45.8892 19.9178H45.6921V18.5932C45.6921 18.537 45.6538 18.4914 45.6064 18.4914C45.5591 18.4914 45.5208 18.537 45.5208 18.5932V19.9178H40.951V18.5932C40.951 18.537 40.9127 18.4914 40.8653 18.4914C40.818 18.4914 40.7797 18.537 40.7797 18.5932V19.9178H40.5819C40.5346 19.9178 40.4963 19.9634 40.4963 20.0196C40.4963 20.0758 40.5346 20.1213 40.5819 20.1213H40.7797V31.1498H39.8725V29.5385C39.8725 28.8569 39.4058 28.302 38.8312 28.302C38.2566 28.302 37.7899 28.8569 37.7899 29.5385V31.1498H36.4292V29.5385C36.4292 28.8569 35.9625 28.302 35.3879 28.302C34.8133 28.302 34.3465 28.8569 34.3465 29.5385V31.1498H32.9859V29.5385C32.9859 28.8569 32.5191 28.302 31.9445 28.302C31.3699 28.302 30.9032 28.8569 30.9032 29.5385V31.1498H29.5425V29.5385C29.5425 28.8569 29.0758 28.302 28.5012 28.302C27.9266 28.302 27.4598 28.8569 27.4598 29.5385V31.1498H26.6666V8.71214C26.6666 8.65594 26.6282 8.6104 26.5809 8.6104C26.5336 8.6104 26.4952 8.65594 26.4952 8.71214V31.1498H25.6618V28.4599C25.6618 27.1004 24.7301 25.9948 23.5857 25.9948C22.4413 25.9948 21.5096 27.1011 21.5096 28.4599V31.1498H20.6762V8.71214C20.6762 8.65594 20.6379 8.6104 20.5905 8.6104C20.5432 8.6104 20.5049 8.65594 20.5049 8.71214V31.1498H19.7116V29.5385C19.7116 28.8569 19.2448 28.302 18.6703 28.302C18.0957 28.302 17.6289 28.8569 17.6289 29.5385V31.1498H16.2682V29.5385C16.2682 28.8569 15.8009 28.302 15.2269 28.302C14.6529 28.302 14.1856 28.8569 14.1856 29.5385V31.1498H12.8249V29.5385C12.8249 28.8569 12.3576 28.302 11.7836 28.302C11.2096 28.302 10.7422 28.8569 10.7422 29.5385V31.1498H9.38156V29.5385C9.38156 28.8569 8.91482 28.302 8.34023 28.302C7.76564 28.302 7.2989 28.8569 7.2989 29.5385V31.1498H6.39178V20.1213H6.5889C6.63624 20.1213 6.67458 20.0758 6.67458 20.0196C6.67458 19.9634 6.63624 19.9178 6.5889 19.9178H6.39178V18.5932C6.39178 18.537 6.35343 18.4914 6.3061 18.4914C6.25877 18.4914 6.22042 18.537 6.22042 18.5932V19.9178H1.65067V18.5932C1.65067 18.537 1.61233 18.4914 1.56499 18.4914C1.51766 18.4914 1.47931 18.537 1.47931 18.5932V19.9178H1.28219C1.23486 19.9178 1.19651 19.9634 1.19651 20.0196C1.19651 20.0758 1.23486 20.1213 1.28219 20.1213H1.47931V31.1498H0.0856791C0.0383459 31.1498 0 31.1954 0 31.2516C0 31.3078 0.0383459 31.3533 0.0856791 31.3533H47.0834C47.1307 31.3533 47.169 31.3078 47.169 31.2516C47.169 31.1954 47.1307 31.1498 47.0834 31.1498H47.0858ZM5.21923 31.1498H2.65725V29.9482C2.65725 29.1095 3.23184 28.4272 3.93824 28.4272C4.64465 28.4272 5.21923 29.1095 5.21923 29.9482V31.1498ZM6.22282 31.1498H5.39059V29.9482C5.39059 28.9971 4.73871 28.2237 3.93764 28.2237C3.13657 28.2237 2.48469 28.9978 2.48469 29.9482V31.1498H1.65247V20.1213H6.22222V31.1498H6.22282ZM9.212 31.1498H7.47325V29.5385C7.47325 28.9693 7.8633 28.5062 8.34263 28.5062C8.82195 28.5062 9.212 28.9693 9.212 29.5385V31.1498ZM12.6553 31.1498H10.9166V29.5385C10.9166 28.9693 11.3066 28.5062 11.786 28.5062C12.2653 28.5062 12.6553 28.9693 12.6553 29.5385V31.1498ZM16.0981 31.1498H14.3593V29.5385C14.3593 28.9693 14.7494 28.5062 15.2287 28.5062C15.708 28.5062 16.0981 28.9693 16.0981 29.5385V31.1498ZM19.5408 31.1498H17.8021V29.5385C17.8021 28.9693 18.1921 28.5062 18.6715 28.5062C19.1508 28.5062 19.5408 28.9693 19.5408 29.5385V31.1498ZM25.4916 31.1498H21.6822V28.4599C21.6822 27.2128 22.5366 26.1983 23.5869 26.1983C24.6372 26.1983 25.4916 27.2128 25.4916 28.4599V31.1498ZM29.3718 31.1498H27.633V29.5385C27.633 28.9693 28.0231 28.5062 28.5024 28.5062C28.9817 28.5062 29.3718 28.9693 29.3718 29.5385V31.1498ZM32.8145 31.1498H31.0758V29.5385C31.0758 28.9693 31.4658 28.5062 31.9451 28.5062C32.4244 28.5062 32.8145 28.9693 32.8145 29.5385V31.1498ZM36.2578 31.1498H34.5191V29.5385C34.5191 28.9693 34.9091 28.5062 35.3885 28.5062C35.8678 28.5062 36.2578 28.9693 36.2578 29.5385V31.1498ZM39.7006 31.1498H37.9618V29.5385C37.9618 28.9693 38.3519 28.5062 38.8312 28.5062C39.3105 28.5062 39.7006 28.9693 39.7006 29.5385V31.1498ZM44.5166 31.1498H41.9546V29.9482C41.9546 29.1095 42.5292 28.4272 43.2356 28.4272C43.942 28.4272 44.5166 29.1095 44.5166 29.9482V31.1498ZM45.5208 31.1498H44.6885V29.9482C44.6885 28.9971 44.0367 28.2237 43.2362 28.2237C42.4357 28.2237 41.7832 28.9978 41.7832 29.9482V31.1498H40.951V20.1213H45.5208V31.1498ZM2.16594 27.4035H5.71054C5.75788 27.4035 5.79622 27.3579 5.79622 27.3017C5.79622 27.2455 5.75788 27.2 5.71054 27.2H5.39119V23.0559C5.39119 22.1048 4.73931 21.3307 3.93824 21.3307C3.13717 21.3307 2.48529 22.1048 2.48529 23.0559V27.2H2.16594C2.11861 27.2 2.08026 27.2455 2.08026 27.3017C2.08026 27.3579 2.11861 27.4035 2.16594 27.4035ZM2.65725 23.0559C2.65725 22.2172 3.23184 21.5349 3.93824 21.5349C4.64465 21.5349 5.21923 22.2172 5.21923 23.0559V27.1844H2.65725V23.0559ZM6.6596 26.9126C6.6596 26.9688 6.69795 27.0143 6.74528 27.0143H20.2682C20.3155 27.0143 20.3539 26.9688 20.3539 26.9126C20.3539 26.8564 20.3155 26.8109 20.2682 26.8109H6.74528C6.69795 26.8109 6.6596 26.8564 6.6596 26.9126ZM41.4633 27.4035H45.0079C45.0552 27.4035 45.0936 27.3579 45.0936 27.3017C45.0936 27.2455 45.0552 27.2 45.0079 27.2H44.6885V23.0559C44.6885 22.1048 44.0367 21.3307 43.2362 21.3307C42.4357 21.3307 41.7832 22.1048 41.7832 23.0559V27.2H41.4639C41.4166 27.2 41.3782 27.2455 41.3782 27.3017C41.3782 27.3579 41.4166 27.4035 41.4639 27.4035H41.4633ZM41.9546 23.0559C41.9546 22.2172 42.5292 21.5349 43.2356 21.5349C43.942 21.5349 44.5166 22.2172 44.5166 23.0559V27.1844H41.9546V23.0559ZM24.8721 1.84188H22.3011L20.388 7.51338H26.7852L24.8721 1.84188ZM22.4174 2.04535H24.7559L26.5312 7.3092H20.6415L22.4168 2.04535H22.4174ZM23.9338 9.95002C23.956 9.95002 23.9776 9.94006 23.9943 9.92014C24.0279 9.8803 24.0279 9.81556 23.9943 9.77572L23.6726 9.39369V8.63317C23.6726 8.57697 23.6342 8.53144 23.5869 8.53144C23.5396 8.53144 23.5012 8.57697 23.5012 8.63317V9.47763L23.8733 9.91943C23.8901 9.93935 23.9123 9.94931 23.9338 9.94931V9.95002ZM24.8481 0.101734C24.8481 0.0455314 24.8098 0 24.7625 0C24.7151 0 24.6768 0.0455314 24.6768 0.101734V1.32823H24.101V0.101734C24.101 0.0455314 24.0626 0 24.0153 0C23.968 0 23.9296 0.0455314 23.9296 0.101734V1.32823H23.2412V0.101734C23.2412 0.0455314 23.2029 0 23.1555 0C23.1082 0 23.0698 0.0455314 23.0698 0.101734V1.32823H22.4941V0.101734C22.4941 0.0455314 22.4557 0 22.4084 0C22.361 0 22.3227 0.0455314 22.3227 0.101734V1.5317H24.8487V0.101734H24.8481ZM24.7505 9.25709C24.7505 8.49515 24.2286 7.8755 23.5869 7.8755C22.9452 7.8755 22.4234 8.49515 22.4234 9.25709C22.4234 10.019 22.9452 10.6387 23.5869 10.6387C24.2286 10.6387 24.7505 10.019 24.7505 9.25709ZM22.5953 9.25709C22.5953 8.60756 23.0405 8.07968 23.5869 8.07968C24.1333 8.07968 24.5785 8.60827 24.5785 9.25709C24.5785 9.90591 24.1333 10.4345 23.5869 10.4345C23.0405 10.4345 22.5953 9.90591 22.5953 9.25709ZM22.0974 7.74602C22.0501 7.74602 22.0117 7.79155 22.0117 7.84775V11.1274H25.1627V7.84775C25.1627 7.79155 25.1243 7.74602 25.077 7.74602C25.0297 7.74602 24.9913 7.79155 24.9913 7.84775V10.924H22.1837V7.84775C22.1837 7.79155 22.1453 7.74602 22.098 7.74602H22.0974ZM8.02568 23.6329C7.69854 23.6329 7.43311 23.9488 7.43311 24.3365V25.9529H7.07482C7.02748 25.9529 6.98914 25.9984 6.98914 26.0546C6.98914 26.1108 7.02748 26.1563 7.07482 26.1563H19.7409C19.7883 26.1563 19.8266 26.1108 19.8266 26.0546C19.8266 25.9984 19.7883 25.9529 19.7409 25.9529H19.5822V24.3365C19.5822 23.9481 19.3161 23.6329 18.9896 23.6329C18.6631 23.6329 18.397 23.9488 18.397 24.3365V25.9529H17.7553V24.3365C17.7553 23.9481 17.4893 23.6329 17.1628 23.6329C16.8362 23.6329 16.5702 23.9488 16.5702 24.3365V25.9529H15.9285V24.3365C15.9285 23.9481 15.6625 23.6329 15.336 23.6329C15.0094 23.6329 14.7434 23.9488 14.7434 24.3365V25.9529H14.1017V24.3365C14.1017 23.9481 13.8357 23.6329 13.5091 23.6329C13.1826 23.6329 12.9166 23.9488 12.9166 24.3365V25.9529H12.2749V24.3365C12.2749 23.9481 12.0089 23.6329 11.6823 23.6329C11.3558 23.6329 11.0898 23.9488 11.0898 24.3365V25.9529H10.4481V24.3365C10.4481 23.9481 10.182 23.6329 9.85549 23.6329C9.52895 23.6329 9.26293 23.9488 9.26293 24.3365V25.9529H8.62123V24.3365C8.62123 23.9481 8.35521 23.6329 8.02867 23.6329H8.02568ZM18.5678 24.3365C18.5678 24.0605 18.7565 23.8364 18.989 23.8364C19.2215 23.8364 19.4102 24.0605 19.4102 24.3365V25.9529H18.5678V24.3365ZM16.7404 24.3365C16.7404 24.0605 16.9291 23.8364 17.1616 23.8364C17.3941 23.8364 17.5828 24.0605 17.5828 24.3365V25.9529H16.7404V24.3365ZM14.913 24.3365C14.913 24.0605 15.1017 23.8364 15.3342 23.8364C15.5666 23.8364 15.7554 24.0605 15.7554 24.3365V25.9529H14.913V24.3365ZM13.0861 24.3365C13.0861 24.0605 13.2749 23.8364 13.5073 23.8364C13.7398 23.8364 13.9285 24.0605 13.9285 24.3365V25.9529H13.0861V24.3365ZM11.2587 24.3365C11.2587 24.0605 11.4474 23.8364 11.6799 23.8364C11.9124 23.8364 12.1011 24.0605 12.1011 24.3365V25.9529H11.2587V24.3365ZM9.43129 24.3365C9.43129 24.0605 9.62003 23.8364 9.8525 23.8364C10.085 23.8364 10.2737 24.0605 10.2737 24.3365V25.9529H9.43129V24.3365ZM8.44688 25.9529H7.60447V24.3365C7.60447 24.0605 7.7932 23.8364 8.02568 23.8364C8.25815 23.8364 8.44688 24.0605 8.44688 24.3365V25.9529ZM26.1489 16.1956H25.7942V13.2909C25.7942 12.6542 25.3574 12.1355 24.8212 12.1355C24.2849 12.1355 23.8481 12.6542 23.8481 13.2909V16.1956H23.4V13.2909C23.4 12.6542 22.9632 12.1355 22.427 12.1355C21.8907 12.1355 21.4539 12.6542 21.4539 13.2909V16.1956H21.0243C20.977 16.1956 20.9387 16.2412 20.9387 16.2974C20.9387 16.3536 20.977 16.3991 21.0243 16.3991H26.1483C26.1956 16.3991 26.234 16.3536 26.234 16.2974C26.234 16.2412 26.1956 16.1956 26.1483 16.1956H26.1489ZM23.2286 16.1956H21.6259V13.2909C21.6259 12.7659 21.9854 12.339 22.4276 12.339C22.8697 12.339 23.2292 12.7659 23.2292 13.2909V16.1956H23.2286ZM25.6228 16.1956H24.0201V13.2909C24.0201 12.7659 24.3796 12.339 24.8218 12.339C25.2639 12.339 25.6234 12.7659 25.6234 13.2909V16.1956H25.6228ZM6.74588 19.3124H20.2688C20.3161 19.3124 20.3545 19.2669 20.3545 19.2107C20.3545 19.1545 20.3161 19.1089 20.2688 19.1089H6.74588C6.69855 19.1089 6.6602 19.1545 6.6602 19.2107C6.6602 19.2669 6.69855 19.3124 6.74588 19.3124ZM19.977 8.19493H21.4551C21.5025 8.19493 21.5408 8.1494 21.5408 8.0932C21.5408 8.03699 21.5025 7.99146 21.4551 7.99146H19.977C19.9297 7.99146 19.8913 8.03699 19.8913 8.0932C19.8913 8.1494 19.9297 8.19493 19.977 8.19493Z" fill="#303030" stroke="#303030" stroke-width="0.4"/>
</g>
<defs>
<clipPath id="clip0_1567_29762">
<rect width="47.169" height="32" fill="white"/>
</clipPath>
</defs>
</svg>
