<svg width="19" height="32" viewBox="0 0 19 32" fill="none" xmlns="http://www.w3.org/2000/svg">
<g clip-path="url(#clip0_1567_29803)">
<path d="M17.316 19.6646C17.3631 19.6646 17.4013 19.6193 17.4013 19.5634V17.3895C17.4013 17.3336 17.3631 17.2883 17.316 17.2883C17.2689 17.2883 17.2308 17.3336 17.2308 17.3895V19.5634C17.2308 19.6193 17.2689 19.6646 17.316 19.6646ZM6.59888 15.358C6.55179 15.358 6.51363 15.4033 6.51363 15.4592V16.39H7.81922V15.4592C7.81922 15.0316 7.52651 14.6841 7.16643 14.6841C6.95897 14.6841 6.76819 14.7973 6.6436 14.9948C6.61558 15.0394 6.62333 15.1031 6.66089 15.1364C6.69844 15.1697 6.7521 15.1612 6.78012 15.1159C6.87193 14.97 7.01262 14.8865 7.16583 14.8865C7.43172 14.8865 7.64813 15.1435 7.64813 15.4585V16.1869H6.68414V15.4585C6.68414 15.4026 6.64598 15.3573 6.59888 15.3573V15.358ZM16.3729 19.6646C16.42 19.6646 16.4582 19.6193 16.4582 19.5634V17.3895C16.4582 17.3336 16.42 17.2883 16.3729 17.2883C16.3258 17.2883 16.2877 17.3336 16.2877 17.3895V19.5634C16.2877 19.6193 16.3258 19.6646 16.3729 19.6646ZM15.4292 19.6646C15.4763 19.6646 15.5144 19.6193 15.5144 19.5634V17.3895C15.5144 17.3336 15.4763 17.2883 15.4292 17.2883C15.3821 17.2883 15.3439 17.3336 15.3439 17.3895V19.5634C15.3439 19.6193 15.3821 19.6646 15.4292 19.6646ZM11.141 15.6326C11.0939 15.6326 11.0558 15.6779 11.0558 15.7338V16.39H12.3614V15.4592C12.3614 15.0316 12.0686 14.6841 11.7086 14.6841C11.3485 14.6841 11.0558 15.0316 11.0558 15.4592C11.0558 15.5151 11.0939 15.5604 11.141 15.5604C11.1881 15.5604 11.2263 15.5151 11.2263 15.4592C11.2263 15.1435 11.4427 14.8872 11.7086 14.8872C11.9745 14.8872 12.1903 15.1442 12.1903 15.4592V16.1876H11.2263V15.7345C11.2263 15.6786 11.1881 15.6333 11.141 15.6333V15.6326ZM6.37354 23.7264C6.74494 23.7264 7.0472 23.3675 7.0472 22.9265C7.0472 22.4855 6.74494 22.1266 6.37354 22.1266C6.00213 22.1266 5.69988 22.4855 5.69988 22.9265C5.69988 23.3675 6.00213 23.7264 6.37354 23.7264ZM6.37354 22.3298C6.65075 22.3298 6.8761 22.5974 6.8761 22.9272C6.8761 23.2571 6.65075 23.524 6.37354 23.524C6.09632 23.524 5.87038 23.2564 5.87038 22.9272C5.87038 22.5981 6.09573 22.3298 6.37354 22.3298ZM3.88994 11.0449H1.11422V12.0706H3.88994V11.0449ZM1.79027 11.8682H1.28532V11.2481H1.79027V11.8682ZM3.04399 11.8682H1.96077V11.2481H3.04399V11.8682ZM3.71944 11.8682H3.21449V11.2481H3.71944V11.8682ZM18.0028 16.538H14.743V20.8432H18.0028V16.538ZM17.8323 20.6408H14.9135V20.0228H17.8323V20.6408ZM17.8323 19.8197H14.9135V16.7404H17.8323V19.8197ZM15.1418 3.27178H15.3344L15.3106 5.49661C15.3106 5.55254 15.3475 5.59855 15.3946 5.59926C15.3946 5.59926 15.3952 5.59926 15.3958 5.59926C15.4423 5.59926 15.4805 5.55466 15.4811 5.49945L15.5049 3.27178H17.2397L17.2636 5.49945C17.2636 5.55466 17.3023 5.59926 17.3488 5.59926C17.3488 5.59926 17.3494 5.59926 17.35 5.59926C17.3971 5.59926 17.4347 5.55254 17.4341 5.49661L17.4102 3.27178H17.6028C17.6499 3.27178 17.688 3.22647 17.688 3.17055C17.688 3.11463 17.6499 3.06933 17.6028 3.06933H17.4078L17.3977 2.11936C17.3912 1.49007 16.9762 0.973322 16.457 0.921647V0.101226C16.457 0.0453037 16.4188 0 16.3717 0C16.3246 0 16.2865 0.0453037 16.2865 0.101226V0.921647C15.7672 0.973322 15.3523 1.49078 15.3457 2.11936L15.3356 3.06933H15.1407C15.0936 3.06933 15.0554 3.11463 15.0554 3.17055C15.0554 3.22647 15.0936 3.27178 15.1407 3.27178H15.1418ZM15.5174 2.1222C15.5234 1.56935 15.9073 1.11914 16.3729 1.11914C16.8385 1.11914 17.2224 1.56935 17.2284 2.1222L17.2385 3.06933H15.5079L15.518 2.1222H15.5174ZM18.7903 31.0493H17.7894V21.1809C17.7894 21.125 17.7512 21.0797 17.7041 21.0797C17.657 21.0797 17.6189 21.125 17.6189 21.1809V31.0493H15.1269V21.1809C15.1269 21.125 15.0888 21.0797 15.0417 21.0797C14.9946 21.0797 14.9564 21.125 14.9564 21.1809V31.0493H13.8744V21.1554H5.00118V31.0493H3.91915V21.1809C3.91915 21.125 3.881 21.0797 3.8339 21.0797C3.7868 21.0797 3.74865 21.125 3.74865 21.1809V31.0493H1.2567V21.1809C1.2567 21.125 1.21855 21.0797 1.17145 21.0797C1.12436 21.0797 1.0862 21.125 1.0862 21.1809V31.0493H0.0852521C0.0381556 31.0493 0 31.0946 0 31.1506C0 31.2065 0.0381556 31.2518 0.0852521 31.2518H18.7903C18.8374 31.2518 18.8756 31.2065 18.8756 31.1506C18.8756 31.0946 18.8374 31.0493 18.7903 31.0493ZM13.7033 31.0493H5.17168V21.3579H13.7033V31.0493ZM14.5463 19.2682H4.32931C4.28221 19.2682 4.24406 19.3135 4.24406 19.3695C4.24406 19.4254 4.28221 19.4707 4.32931 19.4707H14.5463C14.5934 19.4707 14.6315 19.4254 14.6315 19.3695C14.6315 19.3135 14.5934 19.2682 14.5463 19.2682ZM14.5463 19.9662H4.32931C4.28221 19.9662 4.24406 20.0115 4.24406 20.0674C4.24406 20.1233 4.28221 20.1686 4.32931 20.1686H14.5463C14.5934 20.1686 14.6315 20.1233 14.6315 20.0674C14.6315 20.0115 14.5934 19.9662 14.5463 19.9662ZM4.89566 14.6841C4.53558 14.6841 4.24286 15.0316 4.24286 15.4592V15.8584C4.24286 15.9143 4.28102 15.9596 4.32812 15.9596C4.37521 15.9596 4.41337 15.9143 4.41337 15.8584V15.4592C4.41337 15.1435 4.62977 14.8872 4.89566 14.8872C5.16155 14.8872 5.37736 15.1442 5.37736 15.4592V16.1876H4.76987C4.72277 16.1876 4.68462 16.2329 4.68462 16.2888C4.68462 16.3447 4.72277 16.39 4.76987 16.39H5.54845V15.4592C5.54845 15.0316 5.25574 14.6841 4.89566 14.6841ZM10.0047 15.9674C10.0518 15.9674 10.09 15.9221 10.09 15.8662V15.4592C10.09 15.0316 9.79728 14.6841 9.4372 14.6841C9.07712 14.6841 8.7844 15.0316 8.7844 15.4592V16.39H10.0041C10.0512 16.39 10.0894 16.3447 10.0894 16.2888C10.0894 16.2329 10.0512 16.1876 10.0041 16.1876H8.95491V15.4592C8.95491 15.1435 9.17131 14.8872 9.4366 14.8872C9.70189 14.8872 9.91889 15.1442 9.91889 15.4592V15.8662C9.91889 15.9221 9.95705 15.9674 10.0041 15.9674H10.0047ZM14.6321 15.4592C14.6321 15.0316 14.3394 14.6841 13.9793 14.6841C13.6193 14.6841 13.3265 15.0316 13.3265 15.4592V16.39H14.1093C14.1564 16.39 14.1945 16.3447 14.1945 16.2888C14.1945 16.2329 14.1564 16.1876 14.1093 16.1876H13.4976V15.4592C13.4976 15.1435 13.714 14.8872 13.9793 14.8872C14.2446 14.8872 14.4616 15.1442 14.4616 15.4592V15.8818C14.4616 15.9377 14.4998 15.983 14.5469 15.983C14.594 15.983 14.6321 15.9377 14.6321 15.8818V15.4592ZM15.1967 16.2874C15.1967 16.3433 15.2337 16.3893 15.2808 16.39C15.2808 16.39 15.2813 16.39 15.2819 16.39C15.3284 16.39 15.3666 16.3454 15.3672 16.2902L15.4089 12.3276C15.4089 12.2716 15.372 12.2256 15.3249 12.2249C15.3249 12.2249 15.3243 12.2249 15.3237 12.2249C15.2772 12.2249 15.239 12.2695 15.2384 12.3247L15.2295 13.1522H3.64492L3.63598 12.3247C3.63598 12.2695 3.59722 12.2249 3.55072 12.2249C3.55072 12.2249 3.55013 12.2249 3.54953 12.2249C3.50244 12.2249 3.46488 12.2716 3.46547 12.3276L3.5072 16.2902C3.5072 16.3454 3.54595 16.39 3.59246 16.39C3.59246 16.39 3.59305 16.39 3.59365 16.39C3.64074 16.39 3.6783 16.3433 3.67771 16.2874L3.65505 14.1213H15.2193L15.1967 16.2874ZM3.65326 13.9182L3.6473 13.3547H15.2277L15.2217 13.9182H3.65326ZM4.25956 17.0101C4.25956 17.0661 4.29771 17.1114 4.34481 17.1114H14.5302C14.5773 17.1114 14.6154 17.0661 14.6154 17.0101C14.6154 16.9542 14.5773 16.9089 14.5302 16.9089H4.34481C4.29771 16.9089 4.25956 16.9542 4.25956 17.0101ZM17.4633 16.39C17.4633 16.39 17.4639 16.39 17.4645 16.39C17.5116 16.39 17.5491 16.3433 17.5485 16.2874L17.5068 12.3247C17.5068 12.2695 17.4681 12.2249 17.4216 12.2249C17.4216 12.2249 17.421 12.2249 17.4204 12.2249C17.3733 12.2249 17.3357 12.2716 17.3363 12.3276L17.378 16.2902C17.378 16.3454 17.4168 16.39 17.4633 16.39ZM2.50208 19.6646C2.54918 19.6646 2.58733 19.6193 2.58733 19.5634V17.3895C2.58733 17.3336 2.54918 17.2883 2.50208 17.2883C2.45498 17.2883 2.41683 17.3336 2.41683 17.3895V19.5634C2.41683 19.6193 2.45498 19.6646 2.50208 19.6646ZM1.55896 19.6646C1.60605 19.6646 1.64421 19.6193 1.64421 19.5634V17.3895C1.64421 17.3336 1.60605 17.2883 1.55896 17.2883C1.51186 17.2883 1.47371 17.3336 1.47371 17.3895V19.5634C1.47371 19.6193 1.51186 19.6646 1.55896 19.6646ZM4.13258 16.538H0.872778V20.8432H4.13258V16.538ZM3.96148 20.6408H1.04268V20.0228H3.96148V20.6408ZM3.96148 19.8197H1.04268V16.7404H3.96148V19.8197ZM6.91247 30.7591C6.91247 30.815 6.95062 30.8603 6.99772 30.8603C7.04481 30.8603 7.08297 30.815 7.08297 30.7591V25.5067C7.08297 23.965 8.13936 22.7113 9.4372 22.7113C10.735 22.7113 11.7914 23.9657 11.7914 25.5067V30.7591C11.7914 30.815 11.8296 30.8603 11.8767 30.8603C11.9238 30.8603 11.9619 30.815 11.9619 30.7591V25.5067C11.9619 23.8538 10.8292 22.5089 9.4372 22.5089C8.04517 22.5089 6.91247 23.8538 6.91247 25.5067V30.7591ZM3.88994 5.76844H3.20913C3.1972 5.7295 3.1662 5.70119 3.12924 5.70119C3.09228 5.70119 3.06128 5.7295 3.04936 5.76844H1.956C1.94407 5.7295 1.91307 5.70119 1.87611 5.70119C1.83915 5.70119 1.80815 5.7295 1.79623 5.76844H1.11541V6.79414H3.89113V5.76844H3.88994ZM1.79027 6.59169H1.28532V5.9716H1.79027V6.59169ZM3.04399 6.59169H1.96077V5.9716H3.04399V6.59169ZM3.71944 6.59169H3.21449V5.9716H3.71944V6.59169ZM1.45344 12.2249C1.40694 12.2249 1.36878 12.2695 1.36819 12.3247L1.32645 16.2874C1.32645 16.3433 1.36342 16.3893 1.41051 16.39C1.41051 16.39 1.41111 16.39 1.41171 16.39C1.45821 16.39 1.49636 16.3454 1.49696 16.2902L1.53869 12.3276C1.53869 12.2716 1.50173 12.2256 1.45463 12.2249C1.45463 12.2249 1.45403 12.2249 1.45344 12.2249ZM3.49528 6.96332C3.49528 6.96332 3.49469 6.96332 3.49409 6.96332C3.44699 6.96332 3.40943 7.01004 3.41003 7.06596L3.44938 10.7618C3.44938 10.817 3.48813 10.8616 3.53463 10.8616C3.53463 10.8616 3.53522 10.8616 3.53582 10.8616C3.58292 10.8616 3.62047 10.8148 3.61988 10.7589L3.58053 7.06313C3.58053 7.00792 3.54178 6.96332 3.49528 6.96332ZM3.4458 19.6646C3.4929 19.6646 3.53105 19.6193 3.53105 19.5634V17.3895C3.53105 17.3336 3.4929 17.2883 3.4458 17.2883C3.3987 17.2883 3.36055 17.3336 3.36055 17.3895V19.5634C3.36055 19.6193 3.3987 19.6646 3.4458 19.6646ZM1.50948 6.96332C1.46297 6.96332 1.42482 7.00792 1.42422 7.06313L1.38488 10.7589C1.38488 10.8148 1.42184 10.8609 1.46894 10.8616C1.46894 10.8616 1.46953 10.8616 1.47013 10.8616C1.51663 10.8616 1.55478 10.817 1.55538 10.7618L1.59473 7.06596C1.59473 7.01004 1.55776 6.96403 1.51067 6.96332C1.51067 6.96332 1.51007 6.96332 1.50948 6.96332ZM1.27161 3.27178H1.46417L1.44032 5.49661C1.44032 5.55254 1.47728 5.59855 1.52438 5.59926C1.52438 5.59926 1.52497 5.59926 1.52557 5.59926C1.57207 5.59926 1.61023 5.55466 1.61082 5.49945L1.63467 3.27178H3.36949L3.39334 5.49945C3.39334 5.55466 3.43209 5.59926 3.47859 5.59926C3.47859 5.59926 3.47919 5.59926 3.47978 5.59926C3.52688 5.59926 3.56443 5.55254 3.56384 5.49661L3.53999 3.27178H3.73255C3.77965 3.27178 3.8178 3.22647 3.8178 3.17055C3.8178 3.11463 3.77965 3.06933 3.73255 3.06933H3.53761L3.52747 2.11936C3.52092 1.49007 3.10599 0.973322 2.58674 0.921647V0.101226C2.58674 0.0453037 2.54858 0 2.50148 0C2.45439 0 2.41623 0.0453037 2.41623 0.101226V0.921647C1.89698 0.973322 1.48205 1.49078 1.47549 2.11936L1.46536 3.06933H1.27041C1.22332 3.06933 1.18516 3.11463 1.18516 3.17055C1.18516 3.22647 1.22332 3.27178 1.27041 3.27178H1.27161ZM1.64719 2.1222C1.65315 1.56935 2.03648 1.11914 2.50268 1.11914C2.96887 1.11914 3.3522 1.56935 3.35817 2.1222L3.3683 3.06933H1.63765L1.64778 2.1222H1.64719ZM17.7608 5.76844H17.08C17.068 5.7295 17.037 5.70119 17.0001 5.70119C16.9631 5.70119 16.9321 5.7295 16.9202 5.76844H15.8268C15.8149 5.7295 15.7839 5.70119 15.7469 5.70119C15.71 5.70119 15.679 5.7295 15.6671 5.76844H14.9862V6.79414H17.762V5.76844H17.7608ZM15.6605 6.59169H15.1556V5.9716H15.6605V6.59169ZM16.9142 6.59169H15.8316V5.9716H16.9142V6.59169ZM17.5897 6.59169H17.0847V5.9716H17.5897V6.59169ZM15.3797 6.96332C15.3332 6.96332 15.2951 7.00792 15.2945 7.06313L15.2551 10.7589C15.2551 10.8148 15.2921 10.8609 15.3392 10.8616C15.3392 10.8616 15.3398 10.8616 15.3404 10.8616C15.3869 10.8616 15.425 10.817 15.4256 10.7618L15.465 7.06596C15.465 7.01004 15.428 6.96403 15.3809 6.96332C15.3809 6.96332 15.3803 6.96332 15.3797 6.96332ZM17.3655 6.96332C17.3655 6.96332 17.3649 6.96332 17.3643 6.96332C17.3172 6.96332 17.2797 7.01004 17.2803 7.06596L17.3196 10.7618C17.3196 10.817 17.3584 10.8616 17.4049 10.8616C17.4049 10.8616 17.4055 10.8616 17.4061 10.8616C17.4532 10.8616 17.4907 10.8148 17.4901 10.7589L17.4508 7.06313C17.4508 7.00792 17.412 6.96332 17.3655 6.96332ZM12.5015 23.7264C12.8729 23.7264 13.1751 23.3675 13.1751 22.9265C13.1751 22.4855 12.8729 22.1266 12.5015 22.1266C12.13 22.1266 11.8278 22.4855 11.8278 22.9265C11.8278 23.3675 12.13 23.7264 12.5015 23.7264ZM12.5015 22.3298C12.7787 22.3298 13.0046 22.5974 13.0046 22.9272C13.0046 23.2571 12.7793 23.524 12.5015 23.524C12.2236 23.524 11.9983 23.2564 11.9983 22.9272C11.9983 22.5981 12.2236 22.3298 12.5015 22.3298ZM17.7608 11.0449H14.9851V12.0706H17.7608V11.0449ZM15.6605 11.8682H15.1556V11.2481H15.6605V11.8682ZM16.9142 11.8682H15.8316V11.2481H16.9142V11.8682ZM17.5897 11.8682H17.0847V11.2481H17.5897V11.8682ZM4.21067 12.622C4.21067 12.678 4.24883 12.7233 4.29592 12.7233C4.34302 12.7233 4.38117 12.678 4.38117 12.622V10.1615H4.14748V7.7795C4.14748 7.72358 4.10933 7.67827 4.06223 7.67827C4.01513 7.67827 3.97698 7.72358 3.97698 7.7795V10.3639H4.21067V12.622ZM18.091 31.7975H9.16595C9.11885 31.7975 9.0807 31.8428 9.0807 31.8988C9.0807 31.9547 9.11885 32 9.16595 32H18.091C18.1381 32 18.1763 31.9547 18.1763 31.8988C18.1763 31.8428 18.1381 31.7975 18.091 31.7975ZM14.5791 12.7233C14.6262 12.7233 14.6643 12.678 14.6643 12.622V10.3639H14.898V7.7795C14.898 7.72358 14.8599 7.67827 14.8128 7.67827C14.7657 7.67827 14.7275 7.72358 14.7275 7.7795V10.1615H14.4938V12.622C14.4938 12.678 14.532 12.7233 14.5791 12.7233ZM7.80372 31.7975H0.784546C0.737449 31.7975 0.699295 31.8428 0.699295 31.8988C0.699295 31.9547 0.737449 32 0.784546 32H7.80372C7.85082 32 7.88897 31.9547 7.88897 31.8988C7.88897 31.8428 7.85082 31.7975 7.80372 31.7975Z" fill="#303030" stroke="#303030" stroke-width="0.29808"/>
</g>
<defs>
<clipPath id="clip0_1567_29803">
<rect width="18.8756" height="32" fill="white"/>
</clipPath>
</defs>
</svg>
