<svg width="66" height="32" viewBox="0 0 66 32" fill="none" xmlns="http://www.w3.org/2000/svg">
<g clip-path="url(#clip0_1567_29855)">
<path d="M35.4544 30.3339C35.5205 30.3339 35.5741 30.2703 35.5741 30.1917V22.6336C35.5741 21.0103 34.4623 19.6901 33.0951 19.6901C31.728 19.6901 30.6161 21.0103 30.6161 22.6336V30.1917C30.6161 30.2703 30.6697 30.3339 30.7359 30.3339C30.802 30.3339 30.8556 30.2703 30.8556 30.1917V22.6336C30.8556 21.1673 31.8602 19.9744 33.0951 19.9744C34.33 19.9744 35.3347 21.1673 35.3347 22.6336V30.1917C35.3347 30.2703 35.3883 30.3339 35.4544 30.3339ZM57.9788 12.9551C58.045 12.9551 58.0986 12.8915 58.0986 12.8129V10.7492C58.0986 9.58807 58.8939 8.64368 59.8718 8.64368C60.8497 8.64368 61.645 9.58807 61.645 10.7492V12.8129C61.645 12.8915 61.6986 12.9551 61.7647 12.9551C61.8309 12.9551 61.8845 12.8915 61.8845 12.8129V10.7492C61.8845 9.47872 61.0456 8.4379 59.9915 8.36334V7.72811C59.9915 7.64958 59.9379 7.58596 59.8718 7.58596C59.8057 7.58596 59.7521 7.64958 59.7521 7.72811V8.36334C58.698 8.4369 57.8591 9.47872 57.8591 10.7492V12.8129C57.8591 12.8915 57.9127 12.9551 57.9788 12.9551ZM38.2197 14.0148C38.2197 14.0933 38.2733 14.1569 38.3394 14.1569C38.4056 14.1569 38.4592 14.0933 38.4592 14.0148C38.4592 13.2553 38.9791 12.638 39.6187 12.638C40.2583 12.638 40.7783 13.2553 40.7783 14.0148V16.0129C40.7783 16.0915 40.8318 16.1551 40.898 16.1551C40.9641 16.1551 41.0177 16.0915 41.0177 16.0129V14.0148C41.0177 13.0982 40.3898 12.3527 39.6187 12.3527C38.8476 12.3527 38.2189 13.0982 38.2189 14.0148H38.2197ZM25.2914 16.1551C25.3576 16.1551 25.4112 16.0915 25.4112 16.0129V14.0148C25.4112 13.2553 25.9311 12.638 26.5707 12.638C27.2103 12.638 27.7302 13.2553 27.7302 14.0148C27.7302 14.0933 27.7838 14.1569 27.85 14.1569C27.9161 14.1569 27.9697 14.0933 27.9697 14.0148C27.9697 13.0982 27.3418 12.3527 26.5699 12.3527C25.798 12.3527 25.17 13.0982 25.17 14.0148V16.0129C25.17 16.0915 25.2236 16.1551 25.2898 16.1551H25.2914ZM32.5099 2.72184C32.5761 2.72184 32.6296 2.65822 32.6296 2.57968V1.45437C32.6296 1.15912 32.8322 0.918547 33.0809 0.918547C33.3295 0.918547 33.5322 1.15912 33.5322 1.45437V2.57968C33.5322 2.65822 33.5857 2.72184 33.6519 2.72184C33.718 2.72184 33.7716 2.65822 33.7716 2.57968V1.45437C33.7716 1.05076 33.5246 0.714757 33.2006 0.647158V0.142157C33.2006 0.063623 33.147 0 33.0809 0C33.0148 0 32.9612 0.063623 32.9612 0.142157V0.647158C32.6372 0.714757 32.3902 1.05076 32.3902 1.45437V2.57968C32.3902 2.65822 32.4438 2.72184 32.5099 2.72184ZM38.6526 15.333H27.5377V16.6919H38.6526V15.333ZM38.4131 16.4076H27.7771V15.6183H38.4131V16.4076ZM38.3855 9.11389C38.3855 9.09699 38.3855 9.08009 38.3855 9.06418C38.3855 6.18528 36.7462 3.68114 34.3987 2.97434L34.3844 2.97036H31.8209L31.7916 2.97434C30.3792 3.39981 29.1644 4.51519 28.4586 6.03616C28.4268 6.10475 28.4477 6.19124 28.5055 6.23001C28.5633 6.26778 28.6361 6.24293 28.6688 6.17434C29.3402 4.72693 30.4939 3.66424 31.836 3.25567H34.3543C36.5872 3.93563 38.146 6.32246 38.146 9.06518C38.146 9.095 38.146 9.12581 38.146 9.15564V9.35147H28.045V9.30078H28.0476L28.0459 9.15663C28.0459 9.12681 28.0459 9.09599 28.0459 9.06617C28.0459 8.38024 28.1422 7.70823 28.333 7.06803C28.3548 6.99347 28.3222 6.91295 28.2602 6.88611C28.1974 6.86027 28.1296 6.89904 28.107 6.9726C27.9119 7.62771 27.8106 8.31463 27.8064 9.01547V9.63579H38.3872V9.11488L38.3855 9.11389ZM27.3761 12.4183C27.4062 12.4183 27.4372 12.4043 27.4598 12.3775C28.0057 11.7393 28.1212 10.9748 28.1447 10.6617H29.3678V12.9431C29.3678 13.0217 29.4214 13.0853 29.4876 13.0853C29.5537 13.0853 29.6073 13.0217 29.6073 12.9431V10.6617H30.8104V12.9431C30.8104 13.0217 30.8639 13.0853 30.9301 13.0853C30.9962 13.0853 31.0498 13.0217 31.0498 12.9431V10.6617H32.2529V12.9431C32.2529 13.0217 32.3065 13.0853 32.3726 13.0853C32.4387 13.0853 32.4923 13.0217 32.4923 12.9431V10.6617H33.6954V12.9431C33.6954 13.0217 33.749 13.0853 33.8151 13.0853C33.8813 13.0853 33.9349 13.0217 33.9349 12.9431V10.6617H35.1379V12.9431C35.1379 13.0217 35.1915 13.0853 35.2577 13.0853C35.3238 13.0853 35.3774 13.0217 35.3774 12.9431V10.6617H36.5805V12.9431C36.5805 13.0217 36.634 13.0853 36.7002 13.0853C36.7663 13.0853 36.8199 13.0217 36.8199 12.9431V10.6617H38.0431C38.0673 10.9748 38.1829 11.7393 38.7287 12.3775C38.7522 12.4043 38.7823 12.4183 38.8125 12.4183C38.8426 12.4183 38.8744 12.4043 38.8979 12.3755C38.9439 12.3199 38.9439 12.2294 38.8962 12.1747C38.4232 11.622 38.311 10.949 38.2842 10.6617H38.6442C38.7103 10.6617 38.7639 10.5981 38.7639 10.5195C38.7639 10.441 38.7103 10.3774 38.6442 10.3774H27.5402C27.4741 10.3774 27.4205 10.441 27.4205 10.5195C27.4205 10.5981 27.4741 10.6617 27.5402 10.6617H27.9002C27.8734 10.949 27.7612 11.622 27.2882 12.1747C27.2413 12.2304 27.2405 12.3199 27.2865 12.3765C27.31 12.4043 27.3409 12.4193 27.3719 12.4193L27.3761 12.4183ZM37.627 15.0725C37.6931 15.0725 37.7467 15.0089 37.7467 14.9304V13.2742H28.4444V14.9304C28.4444 15.0089 28.498 15.0725 28.5641 15.0725C28.6303 15.0725 28.6838 15.0089 28.6838 14.9304V13.5585H37.5064V14.9304C37.5064 15.0089 37.56 15.0725 37.6261 15.0725H37.627ZM3.9684 12.9551C4.03454 12.9551 4.08812 12.8915 4.08812 12.8129V10.7492C4.08812 9.58807 4.88348 8.64368 5.86135 8.64368C6.83921 8.64368 7.63457 9.58807 7.63457 10.7492V12.8129C7.63457 12.8915 7.68815 12.9551 7.75429 12.9551C7.82043 12.9551 7.87401 12.8915 7.87401 12.8129V10.7492C7.87401 9.47872 7.03512 8.4379 5.98107 8.36334V7.72811C5.98107 7.64958 5.92749 7.58596 5.86135 7.58596C5.79521 7.58596 5.74162 7.64958 5.74162 7.72811V8.36334C4.68757 8.4369 3.84868 9.47872 3.84868 10.7492V12.8129C3.84868 12.8915 3.90226 12.9551 3.9684 12.9551ZM44.0359 20.7995V22.9835H45.5495V20.7995C45.5495 20.3034 45.2096 19.9008 44.7927 19.9008C44.3758 19.9008 44.0359 20.3044 44.0359 20.7995ZM45.3101 20.7995V22.6982H44.2753V20.7995C44.2753 20.4605 44.5072 20.1851 44.7927 20.1851C45.0782 20.1851 45.3101 20.4605 45.3101 20.7995ZM50.1802 20.7995V22.9835H51.6939V20.7995C51.6939 20.3034 51.354 19.9008 50.937 19.9008C50.5201 19.9008 50.1802 20.3044 50.1802 20.7995ZM51.4544 20.7995V22.6982H50.4196V20.7995C50.4196 20.4605 50.6515 20.1851 50.937 20.1851C51.2225 20.1851 51.4544 20.4605 51.4544 20.7995ZM53.581 20.7995V22.9835H55.0955V20.7995C55.0955 20.3034 54.7556 19.9008 54.3386 19.9008C53.9217 19.9008 53.5818 20.3044 53.5818 20.7995H53.581ZM54.8552 20.7995V22.6982H53.8204V20.7995C53.8204 20.4605 54.0523 20.1851 54.3378 20.1851C54.6233 20.1851 54.8552 20.4605 54.8552 20.7995ZM50.1802 26.111V28.295H51.6939V26.111C51.6939 25.6149 51.354 25.2123 50.937 25.2123C50.5201 25.2123 50.1802 25.6159 50.1802 26.111ZM51.4544 26.111V28.0097H50.4196V26.111C50.4196 25.772 50.6515 25.4966 50.937 25.4966C51.2225 25.4966 51.4544 25.772 51.4544 26.111ZM40.0984 19.7686C39.5911 19.7686 39.1783 20.2587 39.1783 20.8611V23.5681H41.0194V20.8611C41.0194 20.2587 40.6066 19.7686 40.0993 19.7686H40.0984ZM40.7791 23.2838H39.4178V20.8611C39.4178 20.4158 39.7234 20.0529 40.0984 20.0529C40.4735 20.0529 40.7791 20.4158 40.7791 20.8611V23.2838ZM59.8718 19.208C59.454 19.208 59.1149 19.6116 59.1149 20.1066V22.2906H60.6295V20.1066C60.6295 19.6106 60.2896 19.208 59.8726 19.208H59.8718ZM60.3892 22.0063H59.3544V20.1076C59.3544 19.7686 59.5863 19.4933 59.8718 19.4933C60.1573 19.4933 60.3892 19.7686 60.3892 20.1076V22.0063ZM65.6134 31.7157H47.522C47.4559 31.7157 47.4023 31.7793 47.4023 31.8578C47.4023 31.9364 47.4559 32 47.522 32H65.6134C65.6796 32 65.7331 31.9364 65.7331 31.8578C65.7331 31.7793 65.6796 31.7157 65.6134 31.7157ZM44.7902 31.7157H0.119722C0.0535818 31.7157 0 31.7793 0 31.8578C0 31.9364 0.0535818 32 0.119722 32H44.7902C44.8563 32 44.9099 31.9364 44.9099 31.8578C44.9099 31.7793 44.8563 31.7157 44.7902 31.7157ZM59.1149 27.613V29.7971H60.6295V27.613C60.6295 27.117 60.2896 26.7144 59.8726 26.7144C59.4557 26.7144 59.1158 27.118 59.1158 27.613H59.1149ZM60.3892 27.613V29.5118H59.3544V27.613C59.3544 27.2741 59.5863 26.9987 59.8718 26.9987C60.1573 26.9987 60.3892 27.2741 60.3892 27.613ZM5.1045 20.1066V22.2906H6.61903V20.1066C6.61903 19.6106 6.27912 19.208 5.86218 19.208C5.44525 19.208 5.10534 19.6116 5.10534 20.1066H5.1045ZM6.37874 20.1066V22.0053H5.34395V20.1066C5.34395 19.7676 5.57585 19.4923 5.86135 19.4923C6.14684 19.4923 6.37874 19.7676 6.37874 20.1066ZM1.21647 30.8071H64.5175C64.5836 30.8071 64.6372 30.7435 64.6372 30.6649C64.6372 30.5864 64.5836 30.5228 64.5175 30.5228H62.9829V25.5831C62.9829 25.5046 62.9293 25.4409 62.8632 25.4409C62.797 25.4409 62.7434 25.5046 62.7434 25.5831V30.5228H57.0018V24.1098H62.7434V24.8306C62.7434 24.9091 62.797 24.9727 62.8632 24.9727C62.9293 24.9727 62.9829 24.9091 62.9829 24.8306V24.1098H63.286C63.3521 24.1098 63.4057 24.0462 63.4057 23.9677C63.4057 23.8892 63.3521 23.8255 63.286 23.8255H62.9829V15.6809H63.286C63.3521 15.6809 63.4057 15.6173 63.4057 15.5387C63.4057 15.4602 63.3521 15.3966 63.286 15.3966H62.9829V13.2742H60.4796V11.7582C60.4796 11.3605 60.2075 11.0375 59.8726 11.0375C59.5377 11.0375 59.2656 11.3605 59.2656 11.7582V13.2742H56.7624V15.3966H56.4593C56.3932 15.3966 56.3396 15.4602 56.3396 15.5387C56.3396 15.6173 56.3932 15.6809 56.4593 15.6809H56.7624V15.995C56.7624 16.0736 56.816 16.1372 56.8821 16.1372C56.9482 16.1372 57.0018 16.0736 57.0018 15.995V15.6809H62.7434V23.8255H57.0018V16.6929C57.0018 16.6144 56.9482 16.5507 56.8821 16.5507C56.816 16.5507 56.7624 16.6144 56.7624 16.6929V23.8255H56.4593C56.3932 23.8255 56.3396 23.8892 56.3396 23.9677C56.3396 24.0462 56.3932 24.1098 56.4593 24.1098H56.7624V30.5228H42.3623V24.4608H42.6519C42.7181 24.4608 42.7717 24.3971 42.7717 24.3186C42.7717 24.2788 42.7583 24.2431 42.7365 24.2172H55.854C55.9201 24.2172 55.9737 24.1536 55.9737 24.0751C55.9737 23.9965 55.9201 23.9329 55.854 23.9329H42.3623V18.1303H42.6519C42.7181 18.1303 42.7717 18.0667 42.7717 17.9882C42.7717 17.9097 42.7181 17.846 42.6519 17.846H42.3623V17.7625H56.2776C56.3438 17.7625 56.3973 17.6989 56.3973 17.6204C56.3973 17.5418 56.3438 17.4782 56.2776 17.4782H53.2645C53.2678 17.4663 53.2695 17.4534 53.2695 17.4395V15.5467C53.2695 14.9194 52.84 14.4085 52.3109 14.4085C51.7818 14.4085 51.3531 14.9184 51.3531 15.5467V17.4395C51.3531 17.4534 51.3548 17.4653 51.3581 17.4782H42.3623V16.511H39.0988C39.0327 16.511 38.9791 16.5746 38.9791 16.6531C38.9791 16.7317 39.0327 16.7953 39.0988 16.7953H42.1228V17.846H38.5261C38.46 17.846 38.4064 17.9097 38.4064 17.9882C38.4064 18.0667 38.46 18.1303 38.5261 18.1303H42.1228V24.1764H38.5261C38.46 24.1764 38.4064 24.2401 38.4064 24.3186C38.4064 24.3971 38.46 24.4608 38.5261 24.4608H42.1228V30.5228H38.1829V17.1054C38.1829 17.0269 38.1293 16.9633 38.0632 16.9633C37.997 16.9633 37.9434 17.0269 37.9434 17.1054V18.0459H36.5428V17.1054C36.5428 17.0269 36.4892 16.9633 36.4231 16.9633C36.3569 16.9633 36.3033 17.0269 36.3033 17.1054V30.5228H29.8903V17.1054C29.8903 17.0269 29.8367 16.9633 29.7705 16.9633C29.7044 16.9633 29.6508 17.0269 29.6508 17.1054V18.0459H28.2502V17.1054C28.2502 17.0269 28.1966 16.9633 28.1304 16.9633C28.0643 16.9633 28.0107 17.0269 28.0107 17.1054V30.5228H24.0708V24.4608H27.6675C27.7336 24.4608 27.7872 24.3971 27.7872 24.3186C27.7872 24.2401 27.7336 24.1764 27.6675 24.1764H24.0708V18.1303H27.6675C27.7336 18.1303 27.7872 18.0667 27.7872 17.9882C27.7872 17.9097 27.7336 17.846 27.6675 17.846H24.0708V16.7953H27.0948C27.1609 16.7953 27.2145 16.7317 27.2145 16.6531C27.2145 16.5746 27.1609 16.511 27.0948 16.511H23.8313V17.4782H14.8355C14.838 17.4663 14.8405 17.4534 14.8405 17.4395V15.5467C14.8405 14.9194 14.411 14.4085 13.8819 14.4085C13.3528 14.4085 12.9233 14.9184 12.9233 15.5467V17.4395C12.9233 17.4534 12.9249 17.4653 12.9283 17.4782H9.45802C9.39188 17.4782 9.3383 17.5418 9.3383 17.6204C9.3383 17.6989 9.39188 17.7625 9.45802 17.7625H23.8305V17.846H23.5408C23.4747 17.846 23.4211 17.9097 23.4211 17.9882C23.4211 18.0667 23.4747 18.1303 23.5408 18.1303H23.8305V23.9329H9.88165C9.81551 23.9329 9.76193 23.9965 9.76193 24.0751C9.76193 24.1536 9.81551 24.2172 9.88165 24.2172H23.4571C23.4353 24.2431 23.4219 24.2788 23.4219 24.3186C23.4219 24.3971 23.4755 24.4608 23.5417 24.4608H23.8313V30.5228H8.97411V24.1098H9.27718C9.34332 24.1098 9.39691 24.0462 9.39691 23.9677C9.39691 23.8892 9.34332 23.8255 9.27718 23.8255H8.97411V16.6929C8.97411 16.6144 8.92053 16.5507 8.85439 16.5507C8.78825 16.5507 8.73467 16.6144 8.73467 16.6929V23.8255H2.99305V15.6809H8.73467V15.995C8.73467 16.0736 8.78825 16.1372 8.85439 16.1372C8.92053 16.1372 8.97411 16.0736 8.97411 15.995V15.6809H9.27718C9.34332 15.6809 9.39691 15.6173 9.39691 15.5387C9.39691 15.4602 9.34332 15.3966 9.27718 15.3966H8.97411V13.2742H6.47084V11.7582C6.47084 11.3605 6.19874 11.0375 5.86386 11.0375C5.52897 11.0375 5.25688 11.3605 5.25688 11.7582V13.2742H2.7536V15.3966H2.45053C2.38439 15.3966 2.33081 15.4602 2.33081 15.5387C2.33081 15.6173 2.38439 15.6809 2.45053 15.6809H2.7536V23.8255H2.45053C2.38439 23.8255 2.33081 23.8892 2.33081 23.9677C2.33081 24.0462 2.38439 24.1098 2.45053 24.1098H2.7536V24.8306C2.7536 24.9091 2.80718 24.9727 2.87332 24.9727C2.93946 24.9727 2.99305 24.9091 2.99305 24.8306V24.1098H8.73467V30.5228H2.99305V25.5831C2.99305 25.5046 2.93946 25.4409 2.87332 25.4409C2.80718 25.4409 2.7536 25.5046 2.7536 25.5831V30.5228H1.21899C1.15285 30.5228 1.09926 30.5864 1.09926 30.6649C1.09926 30.7435 1.15285 30.8071 1.21899 30.8071H1.21647ZM59.5051 11.7582C59.5051 11.5176 59.67 11.3228 59.8718 11.3228C60.0736 11.3228 60.2385 11.5186 60.2385 11.7582V13.2742H59.5043V11.7582H59.5051ZM57.001 15.3956V13.5585H62.7426V15.3956H57.001ZM51.5926 17.4385V15.5457C51.5926 15.0755 51.9149 14.6928 52.3109 14.6928C52.7069 14.6928 53.0292 15.0755 53.0292 15.5457V17.4385C53.0292 17.4524 53.0309 17.4643 53.0342 17.4772H51.5875C51.5909 17.4653 51.5926 17.4524 51.5926 17.4385ZM36.5411 18.3312H37.9418V28.1141H36.5411V18.3312ZM36.5411 28.3974H37.9418V30.5218H36.5411V28.3974ZM28.2485 18.3312H29.6492V28.1141H28.2485V18.3312ZM28.2485 28.3974H29.6492V30.5218H28.2485V28.3974ZM13.156 17.4772C13.1594 17.4653 13.161 17.4524 13.161 17.4385V15.5457C13.161 15.0755 13.4834 14.6928 13.8794 14.6928C14.2754 14.6928 14.5977 15.0755 14.5977 15.5457V17.4385C14.5977 17.4524 14.5994 17.4643 14.6027 17.4772H13.156ZM5.49465 11.7582C5.49465 11.5176 5.65958 11.3228 5.86135 11.3228C6.06311 11.3228 6.22805 11.5186 6.22805 11.7582V13.2742H5.49381V11.7582H5.49465ZM2.99053 13.5585H8.73216V15.3956H2.99053V13.5585ZM15.2532 25.2123C14.8355 25.2123 14.4964 25.6159 14.4964 26.111V28.295H16.0109V26.111C16.0109 25.6149 15.671 25.2123 15.2541 25.2123H15.2532ZM15.7706 28.0097H14.7358V26.111C14.7358 25.772 14.9677 25.4966 15.2532 25.4966C15.5387 25.4966 15.7706 25.772 15.7706 26.111V28.0097ZM11.3953 19.9008C10.9776 19.9008 10.6385 20.3044 10.6385 20.7995V22.9835H12.153V20.7995C12.153 20.3034 11.8131 19.9008 11.3962 19.9008H11.3953ZM11.9127 22.6992H10.8779V20.8005C10.8779 20.4615 11.1098 20.1861 11.3953 20.1861C11.6808 20.1861 11.9127 20.4615 11.9127 20.8005V22.6992ZM5.86135 26.7144C5.44357 26.7144 5.1045 27.118 5.1045 27.613V29.7971H6.61903V27.613C6.61903 27.117 6.27912 26.7144 5.86218 26.7144H5.86135ZM6.37874 29.5118H5.34395V27.613C5.34395 27.2741 5.57585 26.9987 5.86135 26.9987C6.14684 26.9987 6.37874 27.2741 6.37874 27.613V29.5118ZM25.1717 20.8611V23.5681H27.0128V20.8611C27.0128 20.2587 26.6 19.7686 26.0927 19.7686C25.5853 19.7686 25.1726 20.2587 25.1726 20.8611H25.1717ZM26.7725 20.8611V23.2838H25.4112V20.8611C25.4112 20.4158 25.7168 20.0529 26.0918 20.0529C26.4669 20.0529 26.7725 20.4158 26.7725 20.8611ZM25.1717 26.5712V29.2782H27.0128V26.5712C27.0128 25.9688 26.6 25.4787 26.0927 25.4787C25.5853 25.4787 25.1726 25.9688 25.1726 26.5712H25.1717ZM26.7725 26.5712V28.9938H25.4112V26.5712C25.4112 26.1259 25.7168 25.763 26.0918 25.763C26.4669 25.763 26.7725 26.1259 26.7725 26.5712ZM40.0984 25.4787C39.5911 25.4787 39.1783 25.9688 39.1783 26.5712V29.2782H41.0194V26.5712C41.0194 25.9688 40.6066 25.4787 40.0993 25.4787H40.0984ZM40.7791 28.9929H39.4178V26.5702C39.4178 26.1249 39.7234 25.762 40.0984 25.762C40.4735 25.762 40.7791 26.1249 40.7791 26.5702V28.9929ZM21.3976 19.9008C20.9798 19.9008 20.6407 20.3044 20.6407 20.7995V22.9835H22.1552V20.7995C22.1552 20.3034 21.8153 19.9008 21.3984 19.9008H21.3976ZM21.915 22.6992H20.8802V20.8005C20.8802 20.4615 21.1121 20.1861 21.3976 20.1861C21.683 20.1861 21.915 20.4615 21.915 20.8005V22.6992ZM15.2532 19.9008C14.8355 19.9008 14.4964 20.3044 14.4964 20.7995V22.9835H16.0109V20.7995C16.0109 20.3034 15.671 19.9008 15.2541 19.9008H15.2532ZM15.7706 22.6992H14.7358V20.8005C14.7358 20.4615 14.9677 20.1861 15.2532 20.1861C15.5387 20.1861 15.7706 20.4615 15.7706 20.8005V22.6992Z" fill="#303030" stroke="#303030" stroke-width="0.418608"/>
</g>
<defs>
<clipPath id="clip0_1567_29855">
<rect width="65.7331" height="32" fill="white"/>
</clipPath>
</defs>
</svg>
