<svg width="40" height="30" viewBox="0 0 40 30" fill="none" xmlns="http://www.w3.org/2000/svg">
<g clip-path="url(#clip0_1567_29865)">
<path d="M15.392 10.3831H16.8398V12.6459C16.8398 12.7036 16.8792 12.7504 16.9278 12.7504C16.9764 12.7504 17.0158 12.7036 17.0158 12.6459V10.3831H18.8384V12.6459C18.8384 12.7036 18.8778 12.7504 18.9264 12.7504C18.975 12.7504 19.0144 12.7036 19.0144 12.6459V10.3831H20.837V12.6459C20.837 12.7036 20.8764 12.7504 20.925 12.7504C20.9736 12.7504 21.013 12.7036 21.013 12.6459V10.3831H22.8356V12.6459C22.8356 12.7036 22.875 12.7504 22.9236 12.7504C22.9722 12.7504 23.0116 12.7036 23.0116 12.6459V10.3831H24.4601C24.5087 10.3831 24.5481 10.3363 24.5481 10.2786C24.5481 10.2209 24.5087 10.1741 24.4601 10.1741H15.392C15.3433 10.1741 15.304 10.2209 15.304 10.2786C15.304 10.3363 15.3433 10.3831 15.392 10.3831ZM15.392 14.0209H24.4601C24.5087 14.0209 24.5481 13.9742 24.5481 13.9165C24.5481 13.8587 24.5087 13.812 24.4601 13.812H15.392C15.3433 13.812 15.304 13.8587 15.304 13.9165C15.304 13.9742 15.3433 14.0209 15.392 14.0209ZM22.9236 15.5728C22.9236 15.9644 23.1919 16.2837 23.5224 16.2837C23.8528 16.2837 24.1211 15.9652 24.1211 15.5728C24.1211 15.1805 23.8528 14.8619 23.5224 14.8619C23.1919 14.8619 22.9236 15.1805 22.9236 15.5728ZM23.9445 15.5728C23.9445 15.8497 23.755 16.0748 23.5217 16.0748C23.2885 16.0748 23.099 15.8497 23.099 15.5728C23.099 15.2959 23.2885 15.0709 23.5217 15.0709C23.755 15.0709 23.9445 15.2959 23.9445 15.5728ZM24.8595 10.5256C24.8109 10.5256 24.7715 10.5723 24.7715 10.6301C24.7715 10.6878 24.8109 10.7345 24.8595 10.7345H25.049V14.2H28.0112V10.7345H28.1004C28.149 10.7345 28.1884 10.6878 28.1884 10.6301C28.1884 10.5723 28.149 10.5256 28.1004 10.5256H28.0112V6.42085H28.1004C28.149 6.42085 28.1884 6.37409 28.1884 6.31637C28.1884 6.25865 28.149 6.21189 28.1004 6.21189H28.0112V2.24014H25.049V6.21189H24.8595C24.8109 6.21189 24.7715 6.25865 24.7715 6.31637C24.7715 6.37409 24.8109 6.42085 24.8595 6.42085H25.049V10.5256H24.8595ZM25.225 2.4491H27.8346V6.21115H25.225V2.4491ZM25.225 6.42085H27.8346V10.5256H25.225V6.42085ZM25.225 10.7345H27.8346V13.991H25.225V10.7345ZM25.3185 2.01802C25.3671 2.01802 25.4065 1.97126 25.4065 1.91354V1.48393C25.4065 0.781053 25.8883 0.208963 26.4803 0.208963C27.0722 0.208963 27.554 0.781053 27.554 1.48393V1.91354C27.554 1.97126 27.5934 2.01802 27.642 2.01802C27.6906 2.01802 27.73 1.97126 27.73 1.91354V1.48393C27.73 0.665612 27.1694 0 26.4803 0C25.7911 0 25.2305 0.665612 25.2305 1.48393V1.91354C25.2305 1.97126 25.2699 2.01802 25.3185 2.01802ZM24.6263 14.68H28.4887C28.5373 14.68 28.5767 14.6332 28.5767 14.5755C28.5767 14.5178 28.5373 14.471 28.4887 14.471H24.6263C24.5777 14.471 24.5383 14.5178 24.5383 14.5755C24.5383 14.6332 24.5777 14.68 24.6263 14.68ZM15.392 4.84778H24.4601C24.5087 4.84778 24.5481 4.80102 24.5481 4.7433C24.5481 4.68558 24.5087 4.63882 24.4601 4.63882H15.392C15.3433 4.63882 15.304 4.68558 15.304 4.7433C15.304 4.80102 15.3433 4.84778 15.392 4.84778ZM10.676 28.3561H10.6767C10.7246 28.3561 10.764 28.31 10.7646 28.2523L10.8194 20.8517C10.8194 19.4693 9.87241 18.3456 8.7082 18.3456C7.54399 18.3456 6.59761 19.47 6.59761 20.8509L6.54284 28.2509C6.54284 28.3086 6.58161 28.3561 6.63022 28.3561C6.68129 28.359 6.71883 28.31 6.71883 28.2523L6.77359 20.8517C6.77359 19.5848 7.64121 18.5546 8.7082 18.5546C9.77519 18.5546 10.6428 19.5848 10.6428 20.8509L10.588 28.2509C10.588 28.3086 10.6268 28.3561 10.6754 28.3561H10.676ZM10.9486 17.6493C10.9486 17.5916 10.9092 17.5448 10.8606 17.5448H5.78044V28.2516C5.78044 28.3093 5.81982 28.3561 5.86844 28.3561C5.91705 28.3561 5.95643 28.3093 5.95643 28.2516V17.7545H10.8606C10.9092 17.7545 10.9486 17.7077 10.9486 17.65V17.6493ZM15.731 15.5728C15.731 15.9644 15.9993 16.2837 16.3297 16.2837C16.6602 16.2837 16.9284 15.9652 16.9284 15.5728C16.9284 15.1805 16.6602 14.8619 16.3297 14.8619C15.9993 14.8619 15.731 15.1805 15.731 15.5728ZM16.7518 15.5728C16.7518 15.8497 16.5623 16.0748 16.3291 16.0748C16.0959 16.0748 15.9064 15.8497 15.9064 15.5728C15.9064 15.2959 16.0959 15.0709 16.3291 15.0709C16.5623 15.0709 16.7518 15.2959 16.7518 15.5728ZM31.1426 18.5546C32.2096 18.5546 33.0773 19.5848 33.0773 20.8524L33.132 28.2523C33.132 28.31 33.172 28.3561 33.22 28.3561H33.2206C33.2692 28.3561 33.3086 28.3086 33.308 28.2509L33.2532 20.8524C33.2532 19.47 32.3062 18.3463 31.1426 18.3463C29.9791 18.3463 29.0321 19.4708 29.0321 20.8539L29.0868 28.2538C29.0868 28.3115 29.1268 28.3575 29.1748 28.3575H29.1754C29.224 28.3575 29.2634 28.31 29.2628 28.2523L29.208 20.8539C29.208 19.5869 30.0757 18.5567 31.1426 18.5567V18.5546ZM38.4251 29.791H15.915C15.8664 29.791 15.827 29.8378 15.827 29.8955C15.827 29.9532 15.8664 30 15.915 30H38.4251C38.4737 30 38.5131 29.9532 38.5131 29.8955C38.5131 29.8378 38.4737 29.791 38.4251 29.791ZM33.9836 28.3561C34.0323 28.3561 34.0716 28.3093 34.0716 28.2516V17.5448H28.9914C28.9428 17.5448 28.9034 17.5916 28.9034 17.6493C28.9034 17.707 28.9428 17.7538 28.9914 17.7538H33.8956V28.2509C33.8956 28.3086 33.935 28.3553 33.9836 28.3553V28.3561ZM39.7641 28.7835H37.3717V14.8553H38.5211C38.5697 14.8553 38.6091 14.8086 38.6091 14.7509C38.6091 14.6931 38.5697 14.6464 38.5211 14.6464H37.3717V11.482H37.6923C37.7409 11.482 37.7802 11.4352 37.7802 11.3775C37.7802 11.3198 37.7409 11.273 37.6923 11.273H37.3717V9.79713H28.5835C28.5349 9.79713 28.4955 9.84389 28.4955 9.90161C28.4955 9.95933 28.5349 10.0061 28.5835 10.0061H37.1957V11.273H28.5558C28.5072 11.273 28.4678 11.3198 28.4678 11.3775C28.4678 11.4352 28.5072 11.482 28.5558 11.482H37.1957V14.6464H29.117C29.0684 14.6464 29.029 14.6931 29.029 14.7509C29.029 14.8086 29.0684 14.8553 29.117 14.8553H37.1957V16.2888H28.9674C28.9188 16.2888 28.8794 16.3356 28.8794 16.3933C28.8794 16.451 28.9188 16.4978 28.9674 16.4978H37.1957V28.7828H28.322V25.5745H28.3964C28.445 25.5745 28.4844 25.5278 28.4844 25.47C28.4844 25.4123 28.445 25.3656 28.3964 25.3656H28.322V15.0774C28.322 15.0197 28.2826 14.973 28.234 14.973C28.1854 14.973 28.146 15.0197 28.146 15.0774V25.3656H24.9702V15.0774C24.9702 15.0197 24.9309 14.973 24.8822 14.973C24.8336 14.973 24.7942 15.0197 24.7942 15.0774V25.3656H24.7124C24.6638 25.3656 24.6244 25.4123 24.6244 25.47C24.6244 25.5278 24.6638 25.5745 24.7124 25.5745H24.7942V28.7828H23.7882V19.9778C23.7882 17.4491 22.056 15.3924 19.9263 15.3924C17.7967 15.3924 16.0645 17.4498 16.0645 19.9778V28.7828H15.0584V25.5745H15.1403C15.1889 25.5745 15.2283 25.5278 15.2283 25.47C15.2283 25.4123 15.1889 25.3656 15.1403 25.3656H15.0584V15.0774C15.0584 15.0197 15.0191 14.973 14.9705 14.973C14.9218 14.973 14.8825 15.0197 14.8825 15.0774V25.3656H11.7067V15.0774C11.7067 15.0197 11.6673 14.973 11.6187 14.973C11.5701 14.973 11.5307 15.0197 11.5307 15.0774V25.3656H11.4563C11.4077 25.3656 11.3683 25.4123 11.3683 25.47C11.3683 25.5278 11.4077 25.5745 11.4563 25.5745H11.5307V28.7828H2.65701V16.4978H10.8852C10.9339 16.4978 10.9732 16.451 10.9732 16.3933C10.9732 16.3356 10.9339 16.2888 10.8852 16.2888H2.65701V14.8553H10.7357C10.7843 14.8553 10.8237 14.8086 10.8237 14.7509C10.8237 14.6931 10.7843 14.6464 10.7357 14.6464H2.65701V11.482H11.2969C11.3455 11.482 11.3849 11.4352 11.3849 11.3775C11.3849 11.3198 11.3455 11.273 11.2969 11.273H2.65701V10.0061H11.2686C11.3172 10.0061 11.3566 9.95933 11.3566 9.90161C11.3566 9.84389 11.3172 9.79713 11.2686 9.79713H2.48041V11.273H2.15982C2.11121 11.273 2.07183 11.3198 2.07183 11.3775C2.07183 11.4352 2.11121 11.482 2.15982 11.482H2.48041V14.6464H1.33097C1.28236 14.6464 1.24297 14.6931 1.24297 14.7509C1.24297 14.8086 1.28236 14.8553 1.33097 14.8553H2.48041V28.7835H0.0879922C0.0393809 28.7835 0 28.8302 0 28.888C0 28.9457 0.0393809 28.9925 0.0879922 28.9925H39.7647C39.8133 28.9925 39.8527 28.9457 39.8527 28.888C39.8527 28.8302 39.8133 28.7835 39.7647 28.7835H39.7641ZM14.8818 28.7835H11.7061V25.5753H14.8818V28.7835ZM23.6116 28.7835H16.2399V19.9786C16.2399 17.5653 17.8933 15.602 19.9257 15.602C21.9582 15.602 23.6116 17.5653 23.6116 19.9786V28.7835ZM28.146 28.7835H24.9702V25.5753H28.146V28.7835ZM12.2101 2.01802C12.2587 2.01802 12.2981 1.97126 12.2981 1.91354V1.48393C12.2981 0.781053 12.7799 0.208963 13.3718 0.208963C13.9638 0.208963 14.4456 0.781053 14.4456 1.48393V1.91354C14.4456 1.97126 14.485 2.01802 14.5336 2.01802C14.5822 2.01802 14.6216 1.97126 14.6216 1.91354V1.48393C14.6216 0.665612 14.061 0 13.3718 0C12.6826 0 12.1221 0.665612 12.1221 1.48393V1.91354C12.1221 1.97126 12.1615 2.01802 12.2101 2.01802ZM11.2741 14.5755C11.2741 14.6332 11.3135 14.68 11.3621 14.68H15.2246C15.2732 14.68 15.3126 14.6332 15.3126 14.5755C15.3126 14.5178 15.2732 14.471 15.2246 14.471H11.3621C11.3135 14.471 11.2741 14.5178 11.2741 14.5755ZM11.751 10.5256C11.7024 10.5256 11.663 10.5723 11.663 10.6301C11.663 10.6878 11.7024 10.7345 11.751 10.7345H11.8402V14.2H14.8025V10.7345H14.992C15.0406 10.7345 15.08 10.6878 15.08 10.6301C15.08 10.5723 15.0406 10.5256 14.992 10.5256H14.8025V6.42085H14.992C15.0406 6.42085 15.08 6.37409 15.08 6.31637C15.08 6.25865 15.0406 6.21189 14.992 6.21189H14.8025V2.24014H11.8402V6.21189H11.751C11.7024 6.21189 11.663 6.25865 11.663 6.31637C11.663 6.37409 11.7024 6.42085 11.751 6.42085H11.8402V10.5256H11.751ZM12.0168 2.4491H14.6265V6.21115H12.0168V2.4491ZM12.0168 6.42085H14.6265V10.5256H12.0168V6.42085ZM12.0168 10.7345H14.6265V13.991H12.0168V10.7345ZM13.418 29.791H1.42696C1.37835 29.791 1.33897 29.8378 1.33897 29.8955C1.33897 29.9532 1.37835 30 1.42696 30H13.418C13.4666 30 13.506 29.9532 13.506 29.8955C13.506 29.8378 13.4666 29.791 13.418 29.791Z" fill="#303030" stroke="#303030" stroke-width="0.5"/>
</g>
<defs>
<clipPath id="clip0_1567_29865">
<rect width="39.8527" height="30" fill="white"/>
</clipPath>
</defs>
</svg>
