<svg width="52" height="30" viewBox="0 0 52 30" fill="none" xmlns="http://www.w3.org/2000/svg">
<g clip-path="url(#clip0_1567_29874)">
<path d="M3.03662 17.2813C3.09517 17.2813 3.1426 17.225 3.1426 17.1554V13.5093L4.17729 12.2807H6.20516C6.26371 12.2807 6.31115 12.2244 6.31115 12.1549C6.31115 12.0854 6.26371 12.029 6.20516 12.029H4.08909L2.93063 13.4046V17.1554C2.93063 17.225 2.97806 17.2813 3.03662 17.2813ZM4.80729 16.0685V18.5609C4.80729 18.6304 4.85473 18.6867 4.91328 18.6867C4.97184 18.6867 5.01927 18.6304 5.01927 18.5609V16.0685C5.01927 15.999 4.97184 15.9427 4.91328 15.9427C4.85473 15.9427 4.80729 15.999 4.80729 16.0685ZM30.5878 6.57791C30.6463 6.57791 30.6938 6.52159 30.6938 6.45206V4.59864C30.6938 3.85939 30.1875 3.2583 29.5649 3.2583C28.9423 3.2583 28.4361 3.85939 28.4361 4.59864V6.45206C28.4361 6.52159 28.4836 6.57791 28.5421 6.57791C28.6007 6.57791 28.6481 6.52159 28.6481 6.45206V4.59864C28.6481 3.99844 29.0595 3.51088 29.5642 3.51088C30.0689 3.51088 30.4803 3.99932 30.4803 4.59864V6.45206C30.4803 6.52159 30.5277 6.57791 30.5863 6.57791H30.5878ZM46.5765 16.0685V18.5609C46.5765 18.6304 46.6239 18.6867 46.6825 18.6867C46.741 18.6867 46.7885 18.6304 46.7885 18.5609V16.0685C46.7885 15.999 46.741 15.9427 46.6825 15.9427C46.6239 15.9427 46.5765 15.999 46.5765 16.0685ZM12.4036 29.7483H2.80833C2.74978 29.7483 2.70234 29.8046 2.70234 29.8742C2.70234 29.9437 2.74978 30 2.80833 30H12.4036C12.4622 30 12.5096 29.9437 12.5096 29.8742C12.5096 29.8046 12.4622 29.7483 12.4036 29.7483ZM26.8203 6.57791C26.8789 6.57791 26.9263 6.52159 26.9263 6.45206V4.59864C26.9263 3.85939 26.4201 3.2583 25.7975 3.2583C25.1749 3.2583 24.6687 3.85939 24.6687 4.59864V6.45206C24.6687 6.52159 24.7161 6.57791 24.7747 6.57791C24.8332 6.57791 24.8807 6.52159 24.8807 6.45206V4.59864C24.8807 3.99844 25.292 3.51088 25.7968 3.51088C26.3015 3.51088 26.7129 3.99932 26.7129 4.59864V6.45206C26.7129 6.52159 26.7603 6.57791 26.8189 6.57791H26.8203ZM34.8777 29.7483H14.4641C14.4056 29.7483 14.3581 29.8046 14.3581 29.8742C14.3581 29.9437 14.4056 30 14.4641 30H34.8777C34.9363 30 34.9837 29.9437 34.9837 29.8742C34.9837 29.8046 34.9363 29.7483 34.8777 29.7483ZM25.8427 14.1403L25.7983 14.1166L25.7538 14.1403C23.0277 15.6259 21.3341 18.3875 21.3341 21.3481V26.7983C21.3341 26.8678 21.3816 26.9242 21.4401 26.9242C21.4987 26.9242 21.5461 26.8678 21.5461 26.7983V21.3481C21.5461 18.5037 23.1737 15.8433 25.7975 14.3938C28.4213 15.8433 30.0489 18.5037 30.0489 21.3481V26.7983C30.0489 26.8678 30.0964 26.9242 30.1549 26.9242C30.2135 26.9242 30.2609 26.8678 30.2609 26.7983V21.3481C30.2609 18.3875 28.5673 15.6259 25.8412 14.1403H25.8427ZM45.3914 12.2807H47.4192L48.4539 13.5093V17.1554C48.4539 17.225 48.5013 17.2813 48.5599 17.2813C48.6185 17.2813 48.6659 17.225 48.6659 17.1554V13.4046L47.5074 12.029H45.3914C45.3328 12.029 45.2854 12.0854 45.2854 12.1549C45.2854 12.2244 45.3328 12.2807 45.3914 12.2807ZM28.408 18.7202C28.4665 18.7202 28.5139 18.6639 28.5139 18.5943C28.5139 18.5248 28.4665 18.4685 28.408 18.4685H25.9042V15.75C25.9042 15.6804 25.8568 15.6241 25.7983 15.6241C25.7397 15.6241 25.6923 15.6804 25.6923 15.75V18.4685H23.1886C23.13 18.4685 23.0826 18.5248 23.0826 18.5943C23.0826 18.6639 23.13 18.7202 23.1886 18.7202H25.6923V21.5126H23.1886C23.13 21.5126 23.0826 21.569 23.0826 21.6385C23.0826 21.708 23.13 21.7643 23.1886 21.7643H25.6923V24.5568H23.1886C23.13 24.5568 23.0826 24.6131 23.0826 24.6826C23.0826 24.7522 23.13 24.8085 23.1886 24.8085H25.6923V26.7974C25.6923 26.867 25.7397 26.9233 25.7983 26.9233C25.8568 26.9233 25.9042 26.867 25.9042 26.7974V24.8085H28.408C28.4665 24.8085 28.5139 24.7522 28.5139 24.6826C28.5139 24.6131 28.4665 24.5568 28.408 24.5568H25.9042V21.7643H28.408C28.4665 21.7643 28.5139 21.708 28.5139 21.6385C28.5139 21.569 28.4665 21.5126 28.408 21.5126H25.9042V18.7202H28.408ZM18.491 5.79553C18.491 5.86506 18.5384 5.92138 18.597 5.92138C18.6555 5.92138 18.7029 5.86506 18.7029 5.79553V2.57361H32.8936V5.79553C32.8936 5.86506 32.941 5.92138 32.9996 5.92138C33.0581 5.92138 33.1056 5.86506 33.1056 5.79553V2.57361H35.5796L32.9544 0.0284551C32.9091 -0.0155482 32.8424 -0.00762658 32.8054 0.0460575C32.7683 0.0997415 32.775 0.178947 32.8202 0.22383L34.9844 2.32191H16.6121L18.7467 0.251993H31.996C32.0546 0.251993 32.102 0.195668 32.102 0.126143C32.102 0.0566173 32.0546 0.00029365 31.996 0.00029365H18.6711L16.0162 2.57449H18.4902V5.79641L18.491 5.79553ZM21.3816 12.0528C20.7479 12.0528 20.2327 12.6645 20.2327 13.4169C20.2327 14.1694 20.7479 14.781 21.3816 14.781C22.0153 14.781 22.5304 14.1694 22.5304 13.4169C22.5304 12.6645 22.0153 12.0528 21.3816 12.0528ZM21.3816 14.5293C20.865 14.5293 20.4447 14.0303 20.4447 13.4169C20.4447 12.8035 20.865 12.3045 21.3816 12.3045C21.8982 12.3045 22.3184 12.8035 22.3184 13.4169C22.3184 14.0303 21.8982 14.5293 21.3816 14.5293ZM31.363 13.4169C31.363 12.6645 30.8479 12.0528 30.2142 12.0528C29.5805 12.0528 29.0654 12.6645 29.0654 13.4169C29.0654 14.1694 29.5805 14.781 30.2142 14.781C30.8479 14.781 31.363 14.1694 31.363 13.4169ZM29.2781 13.4169C29.2781 12.8035 29.6983 12.3045 30.2149 12.3045C30.7316 12.3045 31.1518 12.8035 31.1518 13.4169C31.1518 14.0303 30.7316 14.5293 30.2149 14.5293C29.6983 14.5293 29.2781 14.0303 29.2781 13.4169ZM31.5683 10.4141C31.5683 10.3446 31.5209 10.2883 31.4624 10.2883H20.1342C20.0756 10.2883 20.0282 10.3446 20.0282 10.4141C20.0282 10.4836 20.0756 10.54 20.1342 10.54H31.4624C31.5209 10.54 31.5683 10.4836 31.5683 10.4141ZM31.4624 6.85073H20.1342C20.0756 6.85073 20.0282 6.90706 20.0282 6.97658C20.0282 7.04611 20.0756 7.10243 20.1342 7.10243H31.4624C31.5209 7.10243 31.5683 7.04611 31.5683 6.97658C31.5683 6.90706 31.5209 6.85073 31.4624 6.85073ZM23.0537 6.57791C23.1122 6.57791 23.1597 6.52159 23.1597 6.45206V4.59864C23.1597 3.85939 22.6534 3.2583 22.0308 3.2583C21.4082 3.2583 20.902 3.85939 20.902 4.59864V6.45206C20.902 6.52159 20.9495 6.57791 21.008 6.57791C21.0666 6.57791 21.114 6.52159 21.114 6.45206V4.59864C21.114 3.99844 21.5254 3.51088 22.0301 3.51088C22.5348 3.51088 22.9462 3.99932 22.9462 4.59864V6.45206C22.9462 6.52159 22.9936 6.57791 23.0522 6.57791H23.0537ZM20.0615 27.6881C20.0615 27.7576 20.109 27.8139 20.1675 27.8139H31.429C31.4876 27.8139 31.535 27.7576 31.535 27.6881C31.535 27.6185 31.4876 27.5622 31.429 27.5622H20.1675C20.109 27.5622 20.0615 27.6185 20.0615 27.6881ZM34.0172 12.029C33.9586 12.029 33.9112 12.0854 33.9112 12.1549V14.216C33.9112 14.2855 33.9586 14.3419 34.0172 14.3419C34.0758 14.3419 34.1232 14.2855 34.1232 14.216V12.1549C34.1232 12.0854 34.0758 12.029 34.0172 12.029ZM13.4124 12.1549V14.216C13.4124 14.2855 13.4598 14.3419 13.5184 14.3419C13.5769 14.3419 13.6244 14.2855 13.6244 14.216V12.1549C13.6244 12.0854 13.5769 12.029 13.5184 12.029C13.4598 12.029 13.4124 12.0854 13.4124 12.1549ZM17.4733 12.1549V14.216C17.4733 14.2855 17.5208 14.3419 17.5793 14.3419C17.6379 14.3419 17.6853 14.2855 17.6853 14.216V12.1549C17.6853 12.0854 17.6379 12.029 17.5793 12.029C17.5208 12.029 17.4733 12.0854 17.4733 12.1549ZM16.2022 12.1549V14.216C16.2022 14.2855 16.2496 14.3419 16.3082 14.3419C16.3667 14.3419 16.4142 14.2855 16.4142 14.216V12.1549C16.4142 12.0854 16.3667 12.029 16.3082 12.029C16.2496 12.029 16.2022 12.0854 16.2022 12.1549ZM35.0867 9.45309C35.1453 9.45309 35.1927 9.39676 35.1927 9.32724V7.8056C35.1927 7.45182 34.9503 7.16404 34.6524 7.16404C34.3544 7.16404 34.1121 7.45182 34.1121 7.8056V9.32724C34.1121 9.39676 34.1595 9.45309 34.2181 9.45309C34.2766 9.45309 34.3241 9.39676 34.3241 9.32724V7.8056C34.3241 7.59087 34.4708 7.41661 34.6517 7.41661C34.8325 7.41661 34.9793 7.59087 34.9793 7.8056V9.32724C34.9793 9.39676 35.0267 9.45309 35.0852 9.45309H35.0867ZM12.1413 12.1549V14.216C12.1413 14.2855 12.1887 14.3419 12.2473 14.3419C12.3058 14.3419 12.3532 14.2855 12.3532 14.216V12.1549C12.3532 12.0854 12.3058 12.029 12.2473 12.029C12.1887 12.029 12.1413 12.0854 12.1413 12.1549ZM43.3042 12.1549V14.216C43.3042 14.2855 43.3516 14.3419 43.4102 14.3419C43.4687 14.3419 43.5162 14.2855 43.5162 14.216V12.1549C43.5162 12.0854 43.4687 12.029 43.4102 12.029C43.3516 12.029 43.3042 12.0854 43.3042 12.1549ZM42.0331 12.1549V14.216C42.0331 14.2855 42.0805 14.3419 42.1391 14.3419C42.1976 14.3419 42.245 14.2855 42.245 14.216V12.1549C42.245 12.0854 42.1976 12.029 42.1391 12.029C42.0805 12.029 42.0331 12.0854 42.0331 12.1549ZM43.2086 9.45309C43.2671 9.45309 43.3146 9.39676 43.3146 9.32724V7.8056C43.3146 7.45182 43.0722 7.16404 42.7742 7.16404C42.4763 7.16404 42.2339 7.45182 42.2339 7.8056V9.32724C42.2339 9.39676 42.2814 9.45309 42.3399 9.45309C42.3985 9.45309 42.4459 9.39676 42.4459 9.32724V7.8056C42.4459 7.59087 42.5927 7.41661 42.7735 7.41661C42.9544 7.41661 43.1011 7.59087 43.1011 7.8056V9.32724C43.1011 9.39676 43.1485 9.45309 43.2071 9.45309H43.2086ZM39.1477 9.45309C39.2062 9.45309 39.2536 9.39676 39.2536 9.32724V7.8056C39.2536 7.45182 39.0113 7.16404 38.7133 7.16404C38.4154 7.16404 38.173 7.45182 38.173 7.8056V9.32724C38.173 9.39676 38.2204 9.45309 38.279 9.45309C38.3375 9.45309 38.385 9.39676 38.385 9.32724V7.8056C38.385 7.59087 38.5317 7.41661 38.7126 7.41661C38.8934 7.41661 39.0402 7.59087 39.0402 7.8056V9.32724C39.0402 9.39676 39.0876 9.45309 39.1462 9.45309H39.1477ZM8.29232 14.216V12.1549C8.29232 12.0854 8.24489 12.029 8.18633 12.029C8.12778 12.029 8.08035 12.0854 8.08035 12.1549V14.216C8.08035 14.2855 8.12778 14.3419 8.18633 14.3419C8.24489 14.3419 8.29232 14.2855 8.29232 14.216ZM39.3493 14.3419C39.4078 14.3419 39.4552 14.2855 39.4552 14.216V12.1549C39.4552 12.0854 39.4078 12.029 39.3493 12.029C39.2907 12.029 39.2433 12.0854 39.2433 12.1549V14.216C39.2433 14.2855 39.2907 14.3419 39.3493 14.3419ZM35.2883 12.029C35.2298 12.029 35.1823 12.0854 35.1823 12.1549V14.216C35.1823 14.2855 35.2298 14.3419 35.2883 14.3419C35.3469 14.3419 35.3943 14.2855 35.3943 14.216V12.1549C35.3943 12.0854 35.3469 12.029 35.2883 12.029ZM38.0781 14.3419C38.1367 14.3419 38.1841 14.2855 38.1841 14.216V12.1549C38.1841 12.0854 38.1367 12.029 38.0781 12.029C38.0196 12.029 37.9721 12.0854 37.9721 12.1549V14.216C37.9721 14.2855 38.0196 14.3419 38.0781 14.3419ZM16.9434 7.16491C16.6454 7.16491 16.4031 7.4527 16.4031 7.80648V9.32812C16.4031 9.39764 16.4505 9.45397 16.509 9.45397C16.5676 9.45397 16.615 9.39764 16.615 9.32812V7.80648C16.615 7.59175 16.7618 7.4175 16.9426 7.4175C17.1235 7.4175 17.2702 7.59175 17.2702 7.80648V9.32812C17.2702 9.39764 17.3177 9.45397 17.3762 9.45397C17.4348 9.45397 17.4822 9.39764 17.4822 9.32812V7.80648C17.4822 7.4527 17.2399 7.16491 16.9419 7.16491H16.9434ZM48.7874 29.7483H36.5884C36.5298 29.7483 36.4824 29.8046 36.4824 29.8742C36.4824 29.9437 36.5298 30 36.5884 30H48.7874C48.846 30 48.8934 29.9437 48.8934 29.8742C48.8934 29.8046 48.846 29.7483 48.7874 29.7483ZM9.56345 14.216V12.1549C9.56345 12.0854 9.51601 12.029 9.45746 12.029C9.39891 12.029 9.35147 12.0854 9.35147 12.1549V14.216C9.35147 14.2855 9.39891 14.3419 9.45746 14.3419C9.51601 14.3419 9.56345 14.2855 9.56345 14.216ZM13.3168 9.45309C13.3753 9.45309 13.4228 9.39676 13.4228 9.32724V7.8056C13.4228 7.45182 13.1804 7.16404 12.8825 7.16404C12.5845 7.16404 12.3421 7.45182 12.3421 7.8056V9.32724C12.3421 9.39676 12.3896 9.45309 12.4481 9.45309C12.5067 9.45309 12.5541 9.39676 12.5541 9.32724V7.8056C12.5541 7.59087 12.7009 7.41661 12.8817 7.41661C13.0626 7.41661 13.2093 7.59087 13.2093 7.8056V9.32724C13.2093 9.39676 13.2567 9.45309 13.3153 9.45309H13.3168ZM51.492 28.5312H48.6659V18.2097C48.6659 18.1402 48.6185 18.0839 48.5599 18.0839C48.5013 18.0839 48.4539 18.1402 48.4539 18.2097V28.5312H44.9281V6.49694L41.3623 5.67144C41.3045 5.65824 41.2489 5.70224 41.2378 5.77089C41.2267 5.83953 41.2645 5.90554 41.3215 5.91874L44.7161 6.70464V28.5312H40.8338V10.1246H44.1899C44.2485 10.1246 44.2959 10.0683 44.2959 9.99873C44.2959 9.9292 44.2485 9.87288 44.1899 9.87288H40.8338V5.52799H37.2384C37.1798 5.52799 37.1324 5.58432 37.1324 5.65384C37.1324 5.72337 37.1798 5.77969 37.2384 5.77969H40.6219V9.87288H36.8063V5.50071L32.5852 6.47758C32.5274 6.49078 32.4904 6.55679 32.5015 6.62543C32.5126 6.69408 32.5682 6.73808 32.626 6.72488L36.5943 5.80609V9.872H32.712V8.309C32.712 8.23948 32.6646 8.18315 32.606 8.18315C32.5474 8.18315 32.5 8.23948 32.5 8.309V28.5312H19.098V25.7194C19.098 25.6498 19.0506 25.5935 18.992 25.5935C18.9334 25.5935 18.886 25.6498 18.886 25.7194V28.5312H15.0037V20.9036C15.0037 20.8341 14.9563 20.7778 14.8977 20.7778C14.8392 20.7778 14.7917 20.8341 14.7917 20.9036V28.5312H10.9761V10.1246H14.7917V19.6152C14.7917 19.6847 14.8392 19.7411 14.8977 19.7411C14.9563 19.7411 15.0037 19.6847 15.0037 19.6152V10.1246H18.886V24.3429C18.886 24.4125 18.9334 24.4688 18.992 24.4688C19.0506 24.4688 19.098 24.4125 19.098 24.3429V6.49694L14.7917 5.49983V9.872H10.9761V5.77881H14.3596C14.4182 5.77881 14.4656 5.72249 14.4656 5.65296C14.4656 5.58344 14.4182 5.52711 14.3596 5.52711H10.7642V9.872H7.4081C7.34954 9.872 7.30211 9.92832 7.30211 9.99785C7.30211 10.0674 7.34954 10.1237 7.4081 10.1237H10.7642V28.5303H6.88186V6.70376L10.2765 5.91786C10.3343 5.90466 10.3713 5.83865 10.3602 5.77001C10.3491 5.70136 10.2935 5.65736 10.2357 5.67056L6.66988 6.49606V28.5303H3.14409V18.2089C3.14409 18.1393 3.09665 18.083 3.0381 18.083C2.97954 18.083 2.93211 18.1393 2.93211 18.2089V28.5303H0.105989C0.0474361 28.5303 0 28.5866 0 28.6561C0 28.7257 0.0474361 28.782 0.105989 28.782H51.4942C51.5528 28.782 51.6002 28.7257 51.6002 28.6561C51.6002 28.5866 51.5528 28.5303 51.4942 28.5303L51.492 28.5312ZM15.003 5.80609L18.8853 6.70464V9.872H15.003V5.80609ZM40.6211 28.5312H36.8055V20.9036C36.8055 20.8341 36.7581 20.7778 36.6995 20.7778C36.641 20.7778 36.5935 20.8341 36.5935 20.9036V28.5312H32.7112V10.1246H36.5935V19.6152C36.5935 19.6847 36.641 19.7411 36.6995 19.7411C36.7581 19.7411 36.8055 19.6847 36.8055 19.6152V10.1246H40.6211V28.5312ZM9.25586 9.45309C9.31441 9.45309 9.36185 9.39676 9.36185 9.32724V7.8056C9.36185 7.45182 9.11948 7.16404 8.82153 7.16404C8.52357 7.16404 8.28121 7.45182 8.28121 7.8056V9.32724C8.28121 9.39676 8.32864 9.45309 8.3872 9.45309C8.44575 9.45309 8.49318 9.39676 8.49318 9.32724V7.8056C8.49318 7.59087 8.63994 7.41661 8.82078 7.41661C9.00163 7.41661 9.14839 7.59087 9.14839 7.8056V9.32724C9.14839 9.39676 9.19582 9.45309 9.25438 9.45309H9.25586Z" fill="#303030" stroke="#303030" stroke-width="0.5"/>
</g>
<defs>
<clipPath id="clip0_1567_29874">
<rect width="51.6002" height="30" fill="white"/>
</clipPath>
</defs>
</svg>
