<svg width="48" height="30" viewBox="0 0 48 30" fill="none" xmlns="http://www.w3.org/2000/svg">
<g clip-path="url(#clip0_1567_29881)">
<path d="M46.7491 30.0003C45.424 30.0003 44.3032 29.5235 43.4116 28.5885C43.232 28.3842 43.071 28.186 42.9348 27.9879C42.8976 28.0312 42.8605 28.0746 42.8295 28.1117C42.6995 28.2789 42.5757 28.4399 42.4704 28.5637C41.5354 29.5235 40.4208 30.0003 39.1391 30.0003C37.8573 30.0003 36.7799 29.5235 35.8635 28.5885C35.6653 28.3904 35.4919 28.186 35.3433 27.9817C35.3186 28.0188 35.2876 28.0498 35.2628 28.0869C35.139 28.2789 34.9656 28.4647 34.7736 28.6133C33.8882 29.5359 32.8046 30.0003 31.5538 30.0003C30.303 30.0003 29.1574 29.5297 28.2224 28.5947C28.0243 28.3718 27.8509 28.1551 27.7023 27.9383C27.659 27.9879 27.6218 28.0374 27.5847 28.0869C27.436 28.2789 27.306 28.4399 27.2007 28.5637C26.2657 29.5235 25.1512 30.0003 23.8694 30.0003C22.5876 30.0003 21.5226 29.5297 20.5752 28.6009C20.3771 28.3904 20.2037 28.1798 20.0551 27.9755C20.0241 28.0126 19.9932 28.0498 19.9684 28.0869C19.8446 28.2789 19.6712 28.4647 19.4792 28.6133C18.5938 29.5359 17.5101 30.0003 16.2593 30.0003C15.0086 30.0003 13.863 29.5297 12.928 28.5947C12.7299 28.3718 12.5565 28.1551 12.4079 27.9383C12.3645 27.9879 12.3274 28.0374 12.2902 28.0869C12.1416 28.2789 12.0116 28.4399 11.9063 28.5637C10.9713 29.5235 9.85675 30.0003 8.57499 30.0003C7.29323 30.0003 6.22819 29.5297 5.2808 28.6009C5.10123 28.4151 4.94643 28.2232 4.80401 28.0374C4.67398 28.217 4.53156 28.3965 4.37057 28.5761C3.44176 29.5297 2.32099 30.0003 1.02066 30.0003C0.742015 30.0003 0.537676 29.9879 0.389066 29.9631C0.135191 29.9198 -0.0319941 29.6783 0.00515831 29.4306C0.0485028 29.1767 0.289993 29.0096 0.537676 29.0467C0.605789 29.0591 0.742015 29.0715 1.02066 29.0715C2.07331 29.0715 2.95258 28.7 3.68944 27.9445C3.97428 27.6225 4.21577 27.2758 4.38295 26.9476C4.46345 26.7928 4.62444 26.6937 4.79782 26.6937C4.9712 26.6937 5.13219 26.7928 5.21269 26.9476C5.37988 27.2758 5.62137 27.6163 5.93716 27.9507C6.70498 28.7 7.57187 29.0715 8.5688 29.0715C9.56572 29.0715 10.4698 28.7 11.2066 27.9445C11.2809 27.8516 11.4048 27.6968 11.541 27.5173C11.6896 27.3253 11.8877 27.0962 12.123 26.8361C12.2283 26.7247 12.3769 26.669 12.5317 26.6875C12.6803 26.7123 12.8166 26.8052 12.8847 26.9414C13.0519 27.2758 13.2872 27.6163 13.5906 27.9569C14.3336 28.7 15.2067 29.0715 16.247 29.0715C17.2872 29.0715 18.0984 28.7061 18.8229 27.9445C18.8414 27.9259 18.86 27.9074 18.8786 27.895C19.0024 27.8021 19.1077 27.6845 19.2006 27.542C19.3616 27.3315 19.5288 27.1148 19.7145 26.8671C19.8136 26.7371 19.9622 26.669 20.1294 26.6813C20.2904 26.6937 20.4328 26.7928 20.5009 26.9352C20.6619 27.2634 20.9096 27.604 21.2254 27.9383C21.9932 28.6876 22.8601 29.0591 23.857 29.0591C24.8539 29.0591 25.758 28.6876 26.4948 27.9321C26.5692 27.8393 26.693 27.6845 26.8354 27.5049C26.984 27.3129 27.1822 27.0838 27.4175 26.8238C27.5227 26.7123 27.6775 26.6566 27.8261 26.6752C27.9809 26.6937 28.111 26.7928 28.1791 26.929C28.3463 27.2634 28.5816 27.604 28.885 27.9445C29.628 28.6876 30.5073 29.0591 31.5414 29.0591C32.5755 29.0591 33.3928 28.6938 34.1173 27.9321C34.1359 27.9136 34.1544 27.895 34.173 27.8826C34.2969 27.7897 34.4021 27.6721 34.5012 27.5297C34.6622 27.3191 34.8294 27.1024 35.0089 26.8609C35.108 26.7309 35.269 26.6628 35.43 26.6752C35.591 26.6937 35.7334 26.799 35.8015 26.9476C35.944 27.2634 36.1793 27.5916 36.5136 27.9259C37.2567 28.6876 38.1112 29.0591 39.1267 29.0591C40.1422 29.0591 41.0276 28.6876 41.7645 27.9321C41.8388 27.8393 41.9626 27.6845 42.0989 27.5049C42.2661 27.3129 42.4209 27.1086 42.5757 26.8795C42.6685 26.7433 42.8295 26.6628 42.9905 26.6752C43.1577 26.6875 43.3001 26.7804 43.3744 26.929C43.5416 27.2634 43.7769 27.604 44.0803 27.9445C44.7924 28.6876 45.6655 29.0591 46.7367 29.0591C46.9349 29.0591 47.1021 29.0529 47.2259 29.0343C47.4798 28.991 47.7151 29.1767 47.7522 29.4306C47.7894 29.6845 47.6098 29.9198 47.3559 29.9569C47.1888 29.9817 46.9844 29.9941 46.7367 29.9941L46.7491 30.0003Z" fill="#303030"/>
<path d="M41.237 27.0594C40.9831 27.0594 40.7726 26.8489 40.7726 26.595V22.694H29.8126V26.595C29.8126 26.8489 29.6021 27.0594 29.3482 27.0594C29.0943 27.0594 28.8838 26.8489 28.8838 26.595V22.2296C28.8838 21.9758 29.0943 21.7652 29.3482 21.7652H30.7104L30.8033 20.4339C30.8033 20.4339 30.8033 20.4339 30.8033 20.4277C30.8033 20.4277 30.8033 20.4215 30.8033 20.4154L31.3606 15.2202L31.7136 11.4616H31.1377C30.8838 11.4616 30.6733 11.2511 30.6733 10.9972V9.44919C30.6733 9.19532 30.8838 8.98479 31.1377 8.98479H32.0665V6.10547H31.1377C30.9334 6.10547 30.76 5.97544 30.6981 5.78348C30.6361 5.59153 30.7043 5.381 30.8653 5.26335L34.822 2.39642V1.02178C34.822 0.767904 35.0325 0.557373 35.2864 0.557373C35.5403 0.557373 35.7508 0.767904 35.7508 1.02178V2.39642L39.6456 5.25716C39.8066 5.37481 39.8747 5.58534 39.8128 5.77729C39.7509 5.96925 39.5713 6.09928 39.3732 6.09928H38.4443V8.97859H39.3732C39.627 8.97859 39.8376 9.18912 39.8376 9.443V10.991C39.8376 11.2449 39.627 11.4554 39.3732 11.4554H38.8344L39.0016 13.2016C39.0016 13.2016 39.0016 13.2016 39.0016 13.2078L39.4351 17.6289C39.4351 17.6289 39.4351 17.6351 39.4351 17.6413L39.8004 21.7652H41.2308C41.4847 21.7652 41.6952 21.9758 41.6952 22.2296V26.595C41.6952 26.8489 41.4847 27.0594 41.2308 27.0594H41.237ZM35.5465 21.7652H38.8716L38.5991 18.7125L35.5465 21.7652ZM31.6393 21.7652H34.2275L38.4877 17.5051L38.1719 14.2666L31.7136 20.6692L31.6393 21.7652ZM32.2709 15.4741L31.8684 19.2141L38.0604 13.0777L37.9056 11.4554H36.2895L32.2709 15.4741ZM32.6486 11.4554L32.4071 14.0251L34.9768 11.4554H32.6486ZM38.3267 10.5266H38.9149V9.9074H31.6083V10.5266H38.3267ZM33.0015 8.97859H37.5217V6.09928H33.0015V8.97859ZM32.5743 5.17047H37.9614L35.2864 3.20758L32.5743 5.17047Z" fill="#303030"/>
<path d="M25.1706 7.98158H9.04021C8.85445 7.98158 8.69346 7.87632 8.61296 7.70294C8.42101 7.27569 8.32812 6.80509 8.32812 6.30972C8.32812 5.36234 8.6625 4.53879 9.33124 3.87624C9.99998 3.21369 10.805 2.87312 11.7338 2.87312C12 2.87312 12.2601 2.89789 12.4954 2.95362C12.7245 2.41491 13.0774 1.92573 13.5419 1.49229C14.514 0.501558 15.7091 0 17.0837 0C18.4584 0 19.6287 0.50775 20.607 1.50467C21.0652 1.94431 21.412 2.43968 21.6411 2.97839C21.9012 2.91647 22.1798 2.87932 22.4708 2.87932C23.4244 2.87932 24.2356 3.21988 24.8795 3.88862C25.5421 4.54498 25.8765 5.36853 25.8765 6.31592C25.8765 6.81128 25.7774 7.28188 25.5916 7.70913C25.5173 7.87632 25.3501 7.98778 25.1644 7.98778L25.1706 7.98158ZM9.3622 7.05277H24.8486C24.9167 6.81747 24.9538 6.56979 24.9538 6.30972C24.9538 5.60383 24.7124 5.02177 24.2232 4.5326C23.7464 4.03723 23.1767 3.80193 22.477 3.80193C22.1303 3.80193 21.8207 3.86385 21.5482 3.9815C21.4244 4.03723 21.2881 4.03104 21.1643 3.9815C21.0405 3.92577 20.9538 3.82051 20.9166 3.69048C20.7556 3.13319 20.4336 2.61925 19.9568 2.16103C19.1395 1.3313 18.2107 0.928811 17.0899 0.928811C15.9691 0.928811 15.0032 1.3313 14.2044 2.14865C14.2044 2.14865 14.192 2.16103 14.1858 2.16723C13.7152 2.60067 13.3932 3.10223 13.2322 3.65952C13.1951 3.78336 13.1084 3.88862 12.9908 3.95054C12.8731 4.00627 12.7369 4.01246 12.613 3.96293C12.3592 3.86386 12.0619 3.80813 11.7338 3.80813C11.0526 3.80813 10.4768 4.04962 9.9876 4.53879C9.49843 5.02797 9.25694 5.61002 9.25694 6.31592C9.25694 6.57598 9.29409 6.82367 9.3622 7.05897V7.05277Z" fill="#303030"/>
<path d="M13.0638 17.3072H1.11306C0.933488 17.3072 0.766302 17.2019 0.691997 17.0347C0.543387 16.7065 0.462891 16.3412 0.462891 15.9449C0.462891 15.2142 0.729149 14.595 1.25548 14.0935C1.76942 13.5795 2.38863 13.3133 3.09452 13.3133C3.2679 13.3133 3.43509 13.3257 3.60227 13.3504C3.77565 12.9665 4.03572 12.6136 4.38247 12.2978C5.10695 11.5547 6.01718 11.177 7.08841 11.177C8.15964 11.177 9.02034 11.5547 9.76958 12.304C10.0916 12.6259 10.3454 12.9851 10.525 13.3628C10.6922 13.3318 10.8656 13.3133 11.0513 13.3133C11.8006 13.3133 12.4322 13.5795 12.9337 14.1059C13.4477 14.595 13.7139 15.2142 13.7139 15.9449C13.7139 16.3412 13.6396 16.7065 13.4848 17.0347C13.4105 17.2019 13.2433 17.3072 13.0638 17.3072ZM1.44124 16.3783H12.7356C12.7665 16.2421 12.7851 16.0997 12.7851 15.9449C12.7851 15.4743 12.6179 15.0904 12.2774 14.7622C11.9368 14.4031 11.5405 14.2421 11.0513 14.2421C10.8098 14.2421 10.6055 14.2792 10.4383 14.3535C10.3145 14.4093 10.1783 14.4093 10.0544 14.3535C9.93057 14.2978 9.83769 14.1925 9.80054 14.0625C9.6767 13.6662 9.44759 13.2885 9.11322 12.9541C8.53736 12.3783 7.8748 12.0996 7.08841 12.0996C6.26486 12.0996 5.58993 12.3783 5.03883 12.9479C5.03264 12.9541 5.02645 12.9603 5.01406 12.9727C4.66731 13.2823 4.45059 13.6229 4.34532 14.013C4.31436 14.1368 4.22767 14.2421 4.11621 14.304C4.00476 14.3659 3.86853 14.3783 3.75088 14.335C3.55274 14.2668 3.32982 14.2359 3.09452 14.2359C2.6425 14.2359 2.2524 14.4031 1.90564 14.7498C1.55889 15.0842 1.3917 15.4681 1.3917 15.9387C1.3917 16.0935 1.41028 16.2359 1.44124 16.3722V16.3783Z" fill="#303030"/>
</g>
<defs>
<clipPath id="clip0_1567_29881">
<rect width="47.7571" height="30" fill="white"/>
</clipPath>
</defs>
</svg>
