<svg width="22" height="30" viewBox="0 0 22 30" fill="none" xmlns="http://www.w3.org/2000/svg">
<g clip-path="url(#clip0_1567_29784)">
<path d="M3.82013 3.86655C3.86803 3.86655 3.90683 3.82093 3.90683 3.76461V1.13773H17.8578V3.76461C17.8578 3.82093 17.8966 3.86655 17.9445 3.86655C17.9924 3.86655 18.0312 3.82093 18.0312 3.76461V0.933847H3.73283V3.76461C3.73283 3.82093 3.77163 3.86655 3.81953 3.86655H3.82013ZM7.1607 0.203878H14.6051C14.653 0.203878 14.6918 0.158255 14.6918 0.10194C14.6918 0.0456236 14.653 0 14.6051 0H7.1607C7.11281 0 7.07401 0.0456236 7.07401 0.10194C7.07401 0.158255 7.11281 0.203878 7.1607 0.203878ZM20.1586 4.74765H1.60663V7.78087H20.1586V4.74765ZM19.9852 7.57699H1.78063V4.95224H19.9852V7.57699ZM0.729348 8.82093H21.0353C21.0832 8.82093 21.122 8.77531 21.122 8.71899C21.122 8.66267 21.0832 8.61705 21.0353 8.61705H0.729348C0.681452 8.61705 0.642651 8.66267 0.642651 8.71899C0.642651 8.77531 0.681452 8.82093 0.729348 8.82093ZM4.17784 14.0761C4.73864 14.0761 5.19516 13.5393 5.19516 12.88C5.19516 12.2206 4.73864 11.6838 4.17784 11.6838C3.61703 11.6838 3.16051 12.2206 3.16051 12.88C3.16051 13.5393 3.61703 14.0761 4.17784 14.0761ZM4.17784 11.8884C4.64285 11.8884 5.02177 12.3332 5.02177 12.8807C5.02177 13.4281 4.64345 13.873 4.17784 13.873C3.71222 13.873 3.3339 13.4281 3.3339 12.8807C3.3339 12.3332 3.71222 11.8884 4.17784 11.8884ZM17.5874 14.0761C18.1482 14.0761 18.6047 13.5393 18.6047 12.88C18.6047 12.2206 18.1482 11.6838 17.5874 11.6838C17.0266 11.6838 16.5701 12.2206 16.5701 12.88C16.5701 13.5393 17.0266 14.0761 17.5874 14.0761ZM17.5874 11.8884C18.0524 11.8884 18.4313 12.3332 18.4313 12.8807C18.4313 13.4281 18.053 13.873 17.5874 13.873C17.1218 13.873 16.7435 13.4281 16.7435 12.8807C16.7435 12.3332 17.1218 11.8884 17.5874 11.8884ZM21.6791 29.7961H20.2586V27.8507H20.6527C20.7006 27.8507 20.7394 27.8051 20.7394 27.7488C20.7394 27.6925 20.7006 27.6468 20.6527 27.6468H20.2586V20.4463H20.6527C20.7006 20.4463 20.7394 20.4006 20.7394 20.3443C20.7394 20.288 20.7006 20.2424 20.6527 20.2424H20.2586V16.7928H20.6527C20.7006 16.7928 20.7394 16.7472 20.7394 16.6909C20.7394 16.6346 20.7006 16.589 20.6527 16.589H20.2586V9.7505H1.5072V16.589H1.11312C1.06522 16.589 1.02642 16.6346 1.02642 16.6909C1.02642 16.7472 1.06522 16.7928 1.11312 16.7928H1.5072V20.2424H1.11312C1.06522 20.2424 1.02642 20.288 1.02642 20.3443C1.02642 20.4006 1.06522 20.4463 1.11312 20.4463H1.5072V27.6468H1.11312C1.06522 27.6468 1.02642 27.6925 1.02642 27.7488C1.02642 27.8051 1.06522 27.8507 1.11312 27.8507H1.5072V29.7961H0.0866968C0.0388011 29.7961 0 29.8417 0 29.8981C0 29.9544 0.0388011 30 0.0866968 30H21.6798C21.7277 30 21.7665 29.9544 21.7665 29.8981C21.7665 29.8417 21.7277 29.7961 21.6798 29.7961H21.6791ZM1.68059 16.7921H2.48148V20.2417H1.68059V16.7921ZM1.68059 20.4463H2.48148V27.6468H1.68059V20.4463ZM6.67447 29.7961H1.67999V27.8507H2.48087V29.1945C2.48087 29.2508 2.51968 29.2964 2.56757 29.2964C2.61547 29.2964 2.65427 29.2508 2.65427 29.1945V27.8507H5.67109V29.1945C5.67109 29.2508 5.70989 29.2964 5.75779 29.2964C5.80568 29.2964 5.84448 29.2508 5.84448 29.1945V27.8507H6.67386V29.7961H6.67447ZM5.67169 16.7921V20.2417H2.65487V16.7921H5.67169ZM2.65487 16.5883V15.1903H5.67169V16.5883H2.65487ZM5.67169 20.4463V27.6468H2.65487V20.4463H5.67169ZM6.67447 27.6468H5.84509V20.4463H6.67447V27.6468ZM6.67447 20.2417H5.84509V16.7921H6.67447V20.2417ZM7.88763 29.7961H6.84847V27.8507H7.88763V29.7961ZM7.88763 27.6468H6.84847V20.4463H7.88763V27.6468ZM7.88763 20.2417H6.84847V16.7921H7.88763V20.2417ZM13.7036 29.7961H8.06102V16.1235C8.06102 14.2943 9.32631 12.8065 10.882 12.8065C12.4377 12.8065 13.703 14.2943 13.703 16.1235V29.7961H13.7036ZM14.9168 29.7961H13.8776V27.8507H14.9168V29.7961ZM14.9168 27.6468H13.8776V20.4463H14.9168V27.6468ZM14.9168 20.2417H13.8776V16.7921H14.9168V20.2417ZM14.9168 16.5883H13.8776V16.1235C13.8776 14.1816 12.5341 12.6019 10.8826 12.6019C9.23113 12.6019 7.88763 14.1816 7.88763 16.1235V16.5883H6.84847V10.8918H14.9168V16.5883ZM20.0846 29.7961H15.0902V27.8507H15.9195V29.1945C15.9195 29.2508 15.9583 29.2964 16.0062 29.2964C16.0541 29.2964 16.0929 29.2508 16.0929 29.1945V27.8507H19.1098V29.1945C19.1098 29.2508 19.1486 29.2964 19.1965 29.2964C19.2444 29.2964 19.2832 29.2508 19.2832 29.1945V27.8507H20.084V29.7961H20.0846ZM15.9195 20.4463V27.6468H15.0902V20.4463H15.9195ZM15.0908 20.2417V16.7921H15.9202V20.2417H15.0908ZM19.1104 16.7921V20.2417H16.0935V16.7921H19.1104ZM16.0935 16.5883V15.1903H19.1104V16.5883H16.0935ZM19.1104 20.4463V27.6468H16.0935V20.4463H19.1104ZM20.0846 27.6468H19.2838V20.4463H20.0846V27.6468ZM20.0846 20.2417H19.2838V16.7921H20.0846V20.2417ZM20.0846 16.5883H19.2838V14.9857H15.9195V16.5883H15.0902V10.6879H6.67447V16.5883H5.84509V14.9857H2.48087V16.5883H1.67999V9.95366H20.084V16.5883H20.0846Z" fill="#303030" stroke="#303030" stroke-width="0.5"/>
</g>
<defs>
<clipPath id="clip0_1567_29784">
<rect width="21.7665" height="30" fill="white"/>
</clipPath>
</defs>
</svg>
