<svg width="46" height="32" viewBox="0 0 46 32" fill="none" xmlns="http://www.w3.org/2000/svg">
<path d="M26.2024 13.4768H24.4934C24.3819 13.4768 24.2729 13.5221 24.1945 13.6005C24.1158 13.6796 24.0708 13.7883 24.0708 13.8997V16.2003C24.0708 16.3131 24.1148 16.4191 24.1945 16.4988C24.2746 16.5786 24.3802 16.6226 24.4934 16.6226H26.2024C26.3152 16.6226 26.4212 16.5786 26.5009 16.4988C26.5806 16.4191 26.6246 16.3131 26.6246 16.2003V13.8997C26.6246 13.7883 26.5796 13.6796 26.5009 13.6005C26.4222 13.5221 26.3135 13.4768 26.202 13.4768H26.2024ZM24.9156 14.3213H25.7795V15.7778H24.9156V14.3213Z" fill="#303030"/>
<path d="M45.1173 27.9355H41.9975V23.1932H43.4179C43.5974 23.1932 43.7586 23.0784 43.8173 22.9083C43.8759 22.7386 43.82 22.5488 43.6782 22.438L38.4854 18.3694C38.4114 18.3112 38.3191 18.2795 38.225 18.2795H31.4967L30.824 11.228C30.824 11.228 30.824 11.227 30.824 11.2267C30.824 11.2257 30.824 11.2246 30.824 11.224L30.6266 9.37624C30.6042 9.17075 30.4358 9.01059 30.2293 8.99934L28.843 8.92437C28.784 8.67389 28.6655 8.32698 28.4259 7.94871C28.0047 7.27942 27.197 6.53754 25.7647 6.09964V6.00967C25.7647 5.89824 25.7197 5.78953 25.641 5.71046C25.5623 5.63208 25.4536 5.58676 25.3422 5.58676H23.6611V3.05169C23.6611 3.05169 23.6611 3.04863 23.6611 3.04726C23.6611 3.03772 23.6604 3.02852 23.6597 3.01898C23.6597 3.01455 23.659 3.01046 23.6587 3.00603C23.6577 2.99649 23.656 2.98728 23.6546 2.97774C23.6539 2.97331 23.6533 2.96922 23.6522 2.96479C23.6502 2.95593 23.6481 2.94707 23.6454 2.93787C23.644 2.9331 23.6427 2.92833 23.6413 2.92356C23.6403 2.92015 23.6396 2.91674 23.6383 2.91333C23.6304 2.89255 23.4917 2.48906 23.2031 2.05934C23.0576 1.84499 22.8746 1.62144 22.6336 1.43844C22.4949 1.33348 22.332 1.24215 22.1497 1.18387V0.42291C22.1497 0.189135 21.9606 0 21.7275 0C21.4944 0 21.3049 0.189135 21.3049 0.42291V1.19001C21.1328 1.24999 20.9802 1.34131 20.8507 1.44457C20.5068 1.72026 20.2805 2.08115 20.1228 2.3749C19.9674 2.66934 19.8869 2.89902 19.8822 2.91265C19.8808 2.91674 19.8798 2.92083 19.8784 2.92492C19.8774 2.92799 19.8764 2.9314 19.8757 2.9348C19.8726 2.94537 19.8699 2.95559 19.8679 2.96616C19.8672 2.96888 19.8668 2.97161 19.8665 2.97434C19.8645 2.98524 19.8627 2.99649 19.8614 3.00739C19.8614 3.01012 19.861 3.01284 19.8607 3.01523C19.8597 3.02648 19.859 3.03772 19.859 3.04863C19.859 3.04965 19.859 3.05067 19.859 3.05135V4.10743H18.5064C18.442 4.10743 18.3749 4.12311 18.3173 4.15207L17.4211 4.59986L15.8773 4.60054C15.7659 4.60054 15.6568 4.64586 15.5785 4.72424C15.4997 4.80331 15.4547 4.91202 15.4547 5.02345V6.72701L12.1137 7.98007C11.9226 8.05163 11.8101 8.2503 11.8466 8.45102C11.883 8.65174 12.0582 8.79828 12.2623 8.79828H12.9572V11.2505L11.8394 25.717L11.6203 27.9345H0.422567C0.189132 27.9345 0 28.1236 0 28.3574C0 28.5912 0.189132 28.7796 0.422567 28.7796H11.5368L11.3814 30.3527C11.3613 30.5513 11.4836 30.7364 11.6745 30.7967C11.7075 30.8076 15.4967 32 22.023 32C28.875 32 32.3411 30.8076 32.382 30.7933C32.566 30.7292 32.6833 30.5466 32.6642 30.3527L32.5609 29.3054H33.8218C33.8406 29.3054 33.859 29.3037 33.877 29.3014C33.8777 29.3014 33.878 29.3014 33.8787 29.3014L37.7214 28.7803L41.5756 28.7796H45.1177C45.3511 28.7796 45.5399 28.5905 45.5399 28.3574C45.5399 28.1243 45.3508 27.9345 45.1177 27.9345L45.1173 27.9355ZM41.1527 27.9348L38.1218 27.9355V26.8627L38.7863 26.8075C38.955 26.7932 39.0991 26.6797 39.1523 26.5189C39.2055 26.358 39.1574 26.1805 39.03 26.069L35.7595 23.1942H41.1523V27.9352L41.1527 27.9348ZM32.0647 23.7439C32.0487 23.7299 32.032 23.718 32.0146 23.7068L31.8088 21.551H32.6114L37.7261 26.0466L34.9512 26.2783L32.0651 23.7439H32.0647ZM12.8737 23.3046H14.4447C14.6781 23.3046 14.8669 23.1155 14.8669 22.8824C14.8669 22.6493 14.6778 22.4595 14.4447 22.4595H12.9388L13.1034 20.3279C13.1034 20.3279 13.1051 20.3279 13.1061 20.3279H16.7967C17.0302 20.3279 17.219 20.1388 17.219 19.9057C17.219 19.6726 17.0298 19.4828 16.7967 19.4828H13.1684L13.2605 18.2931H30.6488L30.6914 18.7382C30.6917 18.7426 30.6921 18.7467 30.6928 18.7511L30.9228 21.1625C30.9231 21.1676 30.9238 21.1727 30.9242 21.1778L31.2554 24.6483H12.7697L12.8737 23.304V23.3046ZM13.6275 13.5464H15.2172C15.4507 13.5464 15.6395 13.3572 15.6395 13.1242C15.6395 12.8911 15.4503 12.7012 15.2172 12.7012H13.6926L13.773 11.6619C15.1041 11.563 16.5919 11.5065 18.1149 11.4789C18.1186 11.4789 18.122 11.4795 18.1258 11.4795C18.1333 11.4795 18.1408 11.4789 18.1479 11.4785C18.99 11.4635 19.8426 11.4571 20.685 11.4571C23.2007 11.4571 25.626 11.5153 27.4219 11.5739C27.7876 11.5859 28.1267 11.5978 28.4358 11.6094C28.4692 11.6179 28.5039 11.623 28.54 11.623C28.5653 11.623 28.5898 11.6203 28.6137 11.6162C28.9875 11.6302 29.3119 11.6435 29.5764 11.6547C29.7502 11.6622 29.8977 11.6687 30.0177 11.6741L30.5687 17.449H13.3262L13.6275 13.5471V13.5464ZM19.3328 8.7993V9.82301C19.3328 9.93581 19.3768 10.0418 19.4565 10.1215C19.5366 10.2013 19.6423 10.2452 19.7554 10.2452H21.5302C21.643 10.2452 21.749 10.2013 21.8287 10.1215C21.9085 10.0418 21.9524 9.93581 21.9524 9.82301V8.7993H24.9196V10.6603C23.6124 10.6317 22.1647 10.6116 20.6847 10.6116C19.9759 10.6116 19.2599 10.616 18.5477 10.6266V8.7993H19.3325H19.3328ZM21.1076 9.4001H20.1776V8.7993H21.1076V9.4001ZM25.7651 9.60491L26.4885 9.64376V10.6998C26.2544 10.693 26.0132 10.6865 25.7651 10.6804V9.60525V9.60491ZM28.1171 9.73168V10.752C27.8711 10.7431 27.609 10.7343 27.333 10.7254V9.68942L28.1171 9.73168ZM35.2061 19.1246L39.0831 22.3481H37.2497L33.5523 19.1246H35.2057H35.2061ZM42.1938 22.3481H40.3829C40.3624 22.3198 40.3386 22.2932 40.3103 22.2697L36.5273 19.1246H38.0792L42.1934 22.3481H42.1938ZM32.2661 19.1246L35.9636 22.3481H34.7978L33.0489 20.8105C32.9716 20.7423 32.8731 20.7052 32.7702 20.7052H31.7284L31.5774 19.1243H32.2661V19.1246ZM29.9311 10.8239C29.6875 10.813 29.36 10.799 28.9623 10.7833V9.777L29.8245 9.82335L29.9315 10.8235L29.9311 10.8239ZM27.7123 8.40229C27.8217 8.57473 27.8963 8.7366 27.9474 8.87666L25.7647 8.75875V8.38014C25.7647 8.38014 25.7647 8.37776 25.7647 8.37673V6.99078C26.8631 7.37927 27.4124 7.93508 27.7123 8.40229ZM24.9199 7.95417H14.5919L18.6502 6.4319H20.2673C20.272 6.4319 20.2768 6.43258 20.2812 6.43258H23.2389C23.2436 6.43258 23.2484 6.4319 23.2528 6.4319H24.9196V7.95417H24.9199ZM20.7038 4.95359H22.8166V5.58744H20.7038V4.95359ZM21.3993 2.08967C21.5203 2.00107 21.6229 1.96324 21.7275 1.96324C21.8628 1.96392 21.9879 2.01197 22.1252 2.11455C22.2881 2.23484 22.4442 2.43386 22.5651 2.62947H20.9495C20.9819 2.57494 21.017 2.52007 21.0541 2.46657C21.1584 2.31458 21.2807 2.17725 21.3993 2.08967ZM20.7038 3.47426H22.8166V4.10811H20.7038V3.47426ZM19.859 5.58744H18.929V4.95359H19.859V5.58744ZM16.2999 5.44636H17.5209C17.5877 5.44636 17.6501 5.43136 17.7097 5.40172L18.0839 5.21463V5.74182L16.2999 6.41077V5.44636ZM14.1816 8.7993H17.7036V10.6419C16.3425 10.6716 15.0145 10.7247 13.8023 10.8126V8.7993H14.1816ZM14.5551 30.5704C13.6926 30.4246 13.0321 30.2791 12.5891 30.1703C12.4593 30.1387 12.3489 30.11 12.2572 30.0855L12.6801 25.8056C12.6805 25.8012 12.6815 25.7968 12.6818 25.792L12.6832 25.7722L12.7108 25.4938H31.3351L31.7894 30.0927C30.8086 30.3711 27.5487 31.1569 22.0233 31.1569C18.8118 31.1569 16.2801 30.8632 14.5554 30.5711L14.5551 30.5704ZM32.2065 25.7197C32.2065 25.7197 32.2065 25.7191 32.2065 25.7187L32.2048 25.701L32.1309 24.9264L33.4163 26.0554L33.4016 28.4617H32.4774L32.2069 25.7197H32.2065ZM34.2566 26.7932L34.5286 27.0321C34.6145 27.1071 34.7283 27.1449 34.8424 27.136L37.277 26.9333V27.9894L34.2468 28.4L34.2566 26.7935V26.7932Z" fill="#303030"/>
<path d="M15.9487 26.7417H14.3733C14.1398 26.7417 13.9507 26.9308 13.9507 27.1646C13.9507 27.3984 14.1398 27.5868 14.3733 27.5868H15.9487C16.1821 27.5868 16.3709 27.3977 16.3709 27.1646C16.3709 26.9315 16.1818 26.7417 15.9487 26.7417Z" fill="#303030"/>
<path d="M20.0823 28.6418H18.468C18.2345 28.6418 18.0454 28.831 18.0454 29.0648C18.0454 29.2985 18.2345 29.487 18.468 29.487H20.0823C20.3154 29.487 20.5045 29.2978 20.5045 29.0648C20.5045 28.8317 20.3154 28.6418 20.0823 28.6418Z" fill="#303030"/>
<path d="M16.747 15.1174H14.9074C14.674 15.1174 14.4849 15.3066 14.4849 15.5403C14.4849 15.7741 14.674 15.9626 14.9074 15.9626H16.747C16.9804 15.9626 17.1692 15.7734 17.1692 15.5403C17.1692 15.3072 16.9801 15.1174 16.747 15.1174Z" fill="#303030"/>
</svg>
