<svg width="52" height="32" viewBox="0 0 52 32" fill="none" xmlns="http://www.w3.org/2000/svg">
<path d="M51.2609 31.1492H45.0277V29.8286C45.0277 29.5936 44.8369 29.4028 44.6019 29.4028H43.7168V12.1496C43.7063 11.5128 43.3049 10.3021 41.8642 10.2778C41.8511 10.2778 41.8379 10.2775 41.8248 10.2775C41.397 10.2775 41.0677 10.4012 40.8027 10.5805V9.14083C40.8027 9.07915 40.7896 9.01814 40.764 8.96218C40.7397 8.91027 40.2102 7.81545 39.0358 7.5977V6.50962C39.0358 6.27434 38.845 6.08355 38.6101 6.08355C38.3751 6.08355 38.1843 6.27434 38.1843 6.50962V7.60242C37.8189 7.67691 37.5146 7.8323 37.2685 8.01668V6.96433C37.2685 6.72905 37.0777 6.53827 36.8428 6.53827H34.9848V4.55086C34.9848 4.4757 34.9653 4.40188 34.9272 4.33648C34.8978 4.28592 34.2496 3.2184 32.9293 3.00672V1.85156C32.9293 1.61628 32.7385 1.42549 32.5036 1.42549C32.2686 1.42549 32.0779 1.61628 32.0779 1.85156V3.00166C31.0757 3.14492 30.4734 3.7766 30.2196 4.1248H28.4071V3.2029C28.4071 3.12773 28.3876 3.05391 28.3495 2.98852C28.3191 2.93593 27.6477 1.82796 26.2781 1.6001V0.426063C26.2781 0.190784 26.0873 0 25.8524 0C25.6175 0 25.4267 0.190784 25.4267 0.426063V1.58763C23.9725 1.76729 23.3048 2.94638 23.2755 3.00099C23.2421 3.06267 23.2249 3.13211 23.2249 3.20222V4.12413H21.459C21.2014 3.78806 20.593 3.1638 19.6087 3.00605V1.85088C19.6087 1.61561 19.418 1.42482 19.183 1.42482C18.9481 1.42482 18.7573 1.61561 18.7573 1.85088V3.00133C17.4026 3.19515 16.7803 4.29705 16.7524 4.34896C16.719 4.41064 16.7018 4.48008 16.7018 4.55019V6.53759H14.8438C14.6089 6.53759 14.4181 6.72838 14.4181 6.96366V8.01601C14.172 7.83163 13.8677 7.67624 13.5023 7.60174V6.50894C13.5023 6.27366 13.3115 6.08288 13.0765 6.08288C12.8416 6.08288 12.6508 6.27366 12.6508 6.50894V7.59702C11.4764 7.81444 10.9469 8.9096 10.9226 8.96151C10.897 9.01746 10.8839 9.07847 10.8839 9.14016V10.5832C10.6118 10.4012 10.2707 10.2761 9.82308 10.2771C8.38174 10.3014 7.98028 11.5122 7.96983 12.1563V29.4021H7.08467C6.84973 29.4021 6.65894 29.5929 6.65894 29.8279V31.1485H0.425727C0.190785 31.1485 0 31.3393 0 31.5743C0 31.8092 0.190785 32 0.425727 32H51.2605C51.4955 32 51.6863 31.8092 51.6863 31.5743C51.6863 31.3393 51.4955 31.1485 51.2605 31.1485L51.2609 31.1492ZM40.8027 29.4028V27.3028C40.8027 27.3028 40.8027 27.3012 40.8027 27.3001V24.9527H42.8653V29.4028H40.8027ZM37.2685 29.4028V27.4296C37.403 27.2088 37.854 26.5778 38.6323 26.5778C39.4106 26.5778 39.8289 27.2074 39.9516 27.4228V29.4028H37.2685ZM34.9848 29.4028V27.3514C34.9878 27.3153 34.9912 27.2799 34.9848 27.2435V24.9527H36.417V29.4028H34.9848ZM30.8738 29.4028V27.4515C31.0107 27.2432 31.521 26.5778 32.4864 26.5778C33.4518 26.5778 33.9601 27.1963 34.1337 27.4343V29.4032H30.8738V29.4028ZM28.4071 29.4028V24.9527H30.0224V29.4028H28.4071ZM24.076 29.4028V27.5782C24.0945 27.5563 24.1208 27.5435 24.135 27.5172C24.1404 27.5074 24.6521 26.5778 25.7897 26.5778C26.9273 26.5778 27.4805 27.493 27.5027 27.5297C27.5165 27.5536 27.5381 27.5691 27.5553 27.589V29.4028H24.0757H24.076ZM21.6642 29.4028V24.9527H23.2249V29.4028H21.6642ZM17.5532 29.4028V27.4387C17.7009 27.2182 18.2089 26.5778 19.1574 26.5778C20.1059 26.5778 20.649 27.2172 20.8128 27.4461V29.4028H17.5529H17.5532ZM15.2696 29.4028V24.9527H16.7018V29.4028H15.2696ZM11.7353 29.4028V27.4228C11.858 27.2074 12.2807 26.5778 13.0546 26.5778C13.8286 26.5778 14.2853 27.2112 14.4184 27.4299V29.4028H11.7356H11.7353ZM11.7353 18.9969C11.858 18.7819 12.2807 18.1526 13.0546 18.1526C13.8286 18.1526 14.2846 18.7842 14.4184 19.0033V22.3343H11.7356V18.9969H11.7353ZM14.4181 17.7659C14.0766 17.5104 13.6273 17.3011 13.0543 17.3011C12.4813 17.3011 12.0646 17.4953 11.735 17.7393V15.1074C11.737 15.0771 11.7394 15.0478 11.735 15.0171V14.3227C11.854 14.113 12.277 13.478 13.0543 13.478C13.8316 13.478 14.285 14.1107 14.4181 14.3294V17.7656V17.7659ZM10.8839 15.188V18.8732C10.8839 18.8732 10.8839 18.8749 10.8839 18.8759V22.3343H8.82129V15.1937C8.9305 15.0208 9.25746 14.5941 9.83824 14.5941C10.419 14.5941 10.7568 15.0046 10.8839 15.188ZM8.82129 23.1855H10.8839V24.1013H8.82129V23.1855ZM11.7353 23.1855H14.4181V24.1013H11.7353V23.1855ZM17.5532 14.0096C17.7043 13.7847 18.2129 13.1497 19.1574 13.1497C20.1019 13.1497 20.649 13.7884 20.8128 14.017V17.7039C20.415 17.4147 19.872 17.1595 19.1574 17.1595C18.4428 17.1595 17.9382 17.4009 17.5532 17.6807V14.0096ZM20.8128 12.8423C20.415 12.5531 19.872 12.2976 19.1574 12.2976C18.4428 12.2976 17.9382 12.5389 17.5532 12.819V9.62521C17.7043 9.40038 18.2129 8.76533 19.1574 8.76533C20.1019 8.76533 20.649 9.40409 20.8128 9.63263V12.8423ZM17.5532 18.8712C17.7043 18.6464 18.2129 18.011 19.1574 18.011C20.1019 18.011 20.649 18.6501 20.8128 18.8786V22.3343H17.5529V18.8712H17.5532ZM20.8128 23.1855V24.1013H17.5529V23.1855H20.8128ZM24.076 13.1598C24.2324 12.9242 24.7744 12.2376 25.7884 12.2376C26.8023 12.2376 27.3848 12.9272 27.5556 13.1669V17.1016C27.1373 16.7884 26.5576 16.5063 25.7884 16.5063C25.0191 16.5063 24.4808 16.7739 24.076 17.0776V13.1598ZM27.5556 11.9807C27.1373 11.6676 26.5576 11.3854 25.7884 11.3854C25.0191 11.3854 24.4808 11.6531 24.076 11.9571V8.54151C24.2324 8.30589 24.7744 7.61927 25.7884 7.61927C26.8023 7.61927 27.3848 8.30893 27.5556 8.54859V11.9807ZM24.076 18.28C24.2294 18.0494 24.7721 17.3577 25.7884 17.3577C26.8046 17.3577 27.3848 18.0474 27.5556 18.2871V22.334H24.076V18.2796V18.28ZM27.5556 23.1855V24.1013H24.076V23.1855H27.5556ZM30.8738 14.0102C31.0242 13.7857 31.5321 13.1497 32.4773 13.1497C33.4225 13.1497 33.9692 13.7888 34.1337 14.0173V17.7039C33.7356 17.4147 33.1926 17.1592 32.4773 17.1592C31.762 17.1592 31.2588 17.4002 30.8738 17.68V14.0099V14.0102ZM34.1334 12.8426C33.7353 12.5534 33.1922 12.2979 32.477 12.2979C31.7617 12.2979 31.2584 12.5392 30.8735 12.819V9.62622C31.0238 9.40173 31.5318 8.76567 32.477 8.76567C33.4221 8.76567 33.9689 9.40476 34.1334 9.6333V12.8426ZM30.8738 18.8715C31.0242 18.6471 31.5321 18.011 32.4773 18.011C33.4225 18.011 33.9692 18.6501 34.1337 18.8786V22.334H30.8738V18.8712V18.8715ZM34.1334 23.1855V24.1013H30.8735V23.1855H34.1334ZM42.8653 24.1013H40.8027V23.1855H42.8653V24.1013ZM42.8653 22.3343H40.8027V18.8766C40.8027 18.8766 40.8027 18.8749 40.8027 18.8739V15.1802C40.92 14.9992 41.2446 14.5937 41.8116 14.5937C42.3786 14.5937 42.7463 15.0235 42.8653 15.2001V22.3343ZM39.9513 15.0242C39.9476 15.0535 39.9489 15.0815 39.9513 15.1105V17.7393C39.6216 17.4953 39.1861 17.3011 38.632 17.3011C38.0778 17.3011 37.6096 17.5104 37.2682 17.7659V14.3294C37.4027 14.1087 37.8537 13.4783 38.632 13.4783C39.4103 13.4783 39.8286 14.1073 39.9513 14.3224V15.0242ZM37.2685 19.0037C37.4006 18.7873 37.8523 18.1526 38.6323 18.1526C39.4123 18.1526 39.8289 18.7819 39.9516 18.9969V22.3343H37.2685V19.0037ZM39.9513 23.1855V24.1013H37.2682V23.1855H39.9513ZM39.9513 26.1649C39.6216 25.9208 39.1861 25.7263 38.632 25.7263C38.0778 25.7263 37.6096 25.9357 37.2682 26.1915V24.9527H39.9513V26.1649ZM36.417 24.1013H34.9848V23.1855H36.417V24.1013ZM34.1334 26.2646C33.7359 25.9781 33.1956 25.7263 32.4861 25.7263C31.7765 25.7263 31.2591 25.9717 30.8735 26.2545V24.9527H34.1334V26.2646ZM30.0224 24.1013H28.4071V23.1855H30.0224V24.1013ZM27.5556 26.3503C27.1522 26.0294 26.5707 25.7263 25.79 25.7263C25.0094 25.7263 24.4674 26.0159 24.0763 26.3297V24.9527H27.556V26.3503H27.5556ZM23.2249 24.1013H21.6642V23.1855H23.2249V24.1013ZM20.8128 26.2707C20.415 25.9815 19.872 25.7263 19.1574 25.7263C18.4428 25.7263 17.9382 25.968 17.5532 26.2478V24.9527H20.8131V26.2707H20.8128ZM16.7018 24.1013H15.2696V23.1855H16.7018V24.1013ZM14.4181 24.9527V26.1915C14.0766 25.9357 13.6273 25.7263 13.0543 25.7263C12.4813 25.7263 12.0646 25.9208 11.735 26.1649V24.9527H14.4178H14.4181ZM41.8281 11.1296C41.8352 11.1296 41.8426 11.1296 41.8504 11.1296C42.7871 11.1451 42.8599 11.9962 42.8653 12.1567V14.0487C42.5879 13.8757 42.2414 13.7416 41.8116 13.7416C41.3818 13.7416 41.0694 13.866 40.8027 14.0284V12.1368C40.8402 11.8742 41.0175 11.1292 41.8281 11.1292V11.1296ZM38.632 8.40399C39.4002 8.40399 39.8259 9.02758 39.9513 9.246V12.1041C39.9496 12.1226 39.9449 12.1445 39.9435 12.162C39.9422 12.1816 39.9496 12.1988 39.9513 12.2177V13.0651C39.6216 12.8207 39.1861 12.6265 38.632 12.6265C38.0778 12.6265 37.6096 12.8359 37.2682 13.0917V9.25342C37.408 9.02656 37.8618 8.40432 38.632 8.40432V8.40399ZM36.417 7.39073V22.3343H34.9848V7.39073H36.417ZM32.4773 3.81435C33.4174 3.81435 33.9631 4.44469 34.1337 4.67997V8.45825C33.7356 8.16904 33.1926 7.91354 32.4773 7.91354C31.762 7.91354 31.2588 8.15489 30.8738 8.43466V4.67255C31.0306 4.44165 31.5423 3.81469 32.4773 3.81469V3.81435ZM30.0224 4.9776V22.3343H28.4071V4.9776H30.0224ZM24.076 3.32357C24.2368 3.0856 24.7839 2.40436 25.7884 2.40436C26.7928 2.40436 27.378 3.08526 27.5556 3.33132V7.36276C27.1373 7.04961 26.5576 6.76748 25.7884 6.76748C25.0191 6.76748 24.4808 7.03512 24.076 7.33916V3.32391V3.32357ZM23.2249 22.3343H21.6642V4.9776H23.2249V22.3343ZM17.5532 4.67255C17.7107 4.44165 18.2223 3.81469 19.1574 3.81469C20.0924 3.81469 20.6426 4.44502 20.8128 4.67997V8.45859C20.415 8.16938 19.872 7.91388 19.1574 7.91388C18.4428 7.91388 17.9382 8.15522 17.5532 8.43533V4.67289V4.67255ZM15.2696 7.39073H16.7018V22.3343H15.2696V7.39073ZM13.0546 8.40399C13.8262 8.40399 14.2796 9.02825 14.4184 9.25274V13.0914C14.077 12.8355 13.6277 12.6262 13.0546 12.6262C12.4816 12.6262 12.065 12.8207 11.7353 13.0647V12.217C11.7367 12.1981 11.7441 12.1809 11.7431 12.1617C11.7421 12.1438 11.737 12.1216 11.7353 12.1027V9.246C11.8607 9.02825 12.2871 8.40365 13.0546 8.40365V8.40399ZM9.8369 11.1299C9.84465 11.1299 9.85206 11.1299 9.85914 11.1299C10.6691 11.1299 10.8464 11.8749 10.8839 12.1361V14.0446C10.6078 13.8741 10.2643 13.7419 9.83824 13.7419C9.41218 13.7419 9.08926 13.8687 8.82129 14.0338V12.1644C8.82331 12.0599 8.86713 11.1461 9.8369 11.1299ZM8.82129 24.9527H10.8839V27.2995C10.8839 27.2995 10.8839 27.3012 10.8839 27.3022V29.4032H8.82129V24.9531V24.9527ZM7.5104 31.1492V30.2543H44.1762V31.1492H7.5104Z" fill="#303030"/>
<path d="M13.0859 19.3005C12.8509 19.3005 12.6602 19.4913 12.6602 19.7263V21.0928C12.6602 21.3277 12.8509 21.5185 13.0859 21.5185C13.3208 21.5185 13.5116 21.3277 13.5116 21.0928V19.7263C13.5116 19.4913 13.3208 19.3005 13.0859 19.3005Z" fill="#303030"/>
<path d="M9.85737 19.6704C9.62243 19.6704 9.43164 19.8612 9.43164 20.0961V21.0966C9.43164 21.3315 9.62243 21.5223 9.85737 21.5223C10.0923 21.5223 10.2831 21.3315 10.2831 21.0966V20.0961C10.2831 19.8612 10.0923 19.6704 9.85737 19.6704Z" fill="#303030"/>
<path d="M9.85737 16.1851C9.62243 16.1851 9.43164 16.3758 9.43164 16.6111V17.6112C9.43164 17.8462 9.62243 18.037 9.85737 18.037C10.0923 18.037 10.2831 17.8462 10.2831 17.6112V16.6111C10.2831 16.3758 10.0923 16.1851 9.85737 16.1851Z" fill="#303030"/>
<path d="M41.8295 19.6704C41.5946 19.6704 41.4038 19.8612 41.4038 20.0961V21.0966C41.4038 21.3315 41.5946 21.5223 41.8295 21.5223C42.0645 21.5223 42.2553 21.3315 42.2553 21.0966V20.0961C42.2553 19.8612 42.0645 19.6704 41.8295 19.6704Z" fill="#303030"/>
<path d="M41.8256 16.1833C41.5907 16.1833 41.3999 16.3741 41.3999 16.6094V17.6095C41.3999 17.8445 41.5907 18.0352 41.8256 18.0352C42.0606 18.0352 42.2514 17.8445 42.2514 17.6095V16.6094C42.2514 16.3741 42.0606 16.1833 41.8256 16.1833Z" fill="#303030"/>
<path d="M13.3845 27.8412C13.2211 27.6851 12.9366 27.6851 12.7808 27.8412C12.7454 27.8843 12.71 27.9335 12.6885 27.9834C12.6669 28.0333 12.6602 28.0903 12.6602 28.1469C12.6602 28.2035 12.6672 28.2598 12.6885 28.3097C12.71 28.3596 12.7454 28.4088 12.7808 28.4449C12.8661 28.5295 12.973 28.5723 13.0859 28.5723C13.1988 28.5723 13.3063 28.5295 13.3845 28.4449C13.4267 28.4088 13.4553 28.3596 13.4769 28.3097C13.4978 28.2598 13.5052 28.2029 13.5052 28.1469C13.5052 28.0909 13.4975 28.0333 13.4769 27.9834C13.4553 27.9335 13.427 27.8843 13.3845 27.8412Z" fill="#303030"/>
<path d="M18.8937 27.8415C18.8084 27.9197 18.7656 28.0336 18.7656 28.1472C18.7656 28.2608 18.8088 28.367 18.8937 28.4452C18.9712 28.5298 19.0781 28.5726 19.1917 28.5726C19.2487 28.5726 19.3053 28.5581 19.3545 28.5372C19.4044 28.5157 19.4543 28.4873 19.4897 28.4449C19.5749 28.3667 19.6171 28.2598 19.6171 28.1469C19.6171 28.034 19.5749 27.9194 19.4964 27.8412C19.3336 27.6851 19.0491 27.6851 18.8934 27.8412L18.8937 27.8415Z" fill="#303030"/>
<path d="M25.5244 27.8412C25.4462 27.9265 25.397 28.0333 25.397 28.1469C25.397 28.2605 25.4462 28.3667 25.5244 28.4449C25.6026 28.5295 25.7088 28.5723 25.8224 28.5723C25.936 28.5723 26.0421 28.5295 26.1274 28.4449C26.1635 28.4088 26.1989 28.3596 26.2198 28.3097C26.2413 28.2598 26.2481 28.2029 26.2481 28.1469C26.2481 28.0333 26.206 27.9265 26.1274 27.8412C25.9646 27.6851 25.6801 27.6851 25.5244 27.8412Z" fill="#303030"/>
<path d="M32.2159 27.8418C32.1384 27.92 32.0952 28.0339 32.0952 28.1475C32.0952 28.2611 32.1384 28.3673 32.2159 28.4455C32.3012 28.5301 32.408 28.5729 32.5216 28.5729C32.5779 28.5729 32.6278 28.5584 32.6844 28.5375C32.7343 28.5159 32.7768 28.4876 32.8196 28.4451C32.8617 28.4091 32.8904 28.3598 32.9119 28.31C32.9328 28.2601 32.9403 28.2031 32.9403 28.1471C32.9403 28.0336 32.8971 27.9196 32.8196 27.8414C32.6561 27.6853 32.3723 27.6853 32.2159 27.8414V27.8418Z" fill="#303030"/>
<path d="M19.1953 19.3005C18.9603 19.3005 18.7695 19.4913 18.7695 19.7263V21.0928C18.7695 21.3277 18.9603 21.5185 19.1953 21.5185C19.4302 21.5185 19.621 21.3277 19.621 21.0928V19.7263C19.621 19.4913 19.4302 19.3005 19.1953 19.3005Z" fill="#303030"/>
<path d="M25.8549 19.3005C25.62 19.3005 25.4292 19.4913 25.4292 19.7263V21.0928C25.4292 21.3277 25.62 21.5185 25.8549 21.5185C26.0899 21.5185 26.2807 21.3277 26.2807 21.0928V19.7263C26.2807 19.4913 26.0899 19.3005 25.8549 19.3005Z" fill="#303030"/>
<path d="M32.5136 19.3003C32.2787 19.3003 32.0879 19.4911 32.0879 19.726V21.0925C32.0879 21.3275 32.2787 21.5183 32.5136 21.5183C32.7486 21.5183 32.9393 21.3275 32.9393 21.0925V19.726C32.9393 19.4911 32.7486 19.3003 32.5136 19.3003Z" fill="#303030"/>
<path d="M13.0844 14.6414C12.8495 14.6414 12.6587 14.8321 12.6587 15.0674V16.4343C12.6587 16.6695 12.8495 16.8603 13.0844 16.8603C13.3194 16.8603 13.5101 16.6695 13.5101 16.4343V15.0674C13.5101 14.8321 13.3194 14.6414 13.0844 14.6414Z" fill="#303030"/>
<path d="M19.621 15.9894V14.6226C19.621 14.3873 19.4302 14.1965 19.1953 14.1965C18.9603 14.1965 18.7695 14.3873 18.7695 14.6226V15.9894C18.7695 16.2247 18.9603 16.4155 19.1953 16.4155C19.4302 16.4155 19.621 16.2247 19.621 15.9894Z" fill="#303030"/>
<path d="M26.2802 15.3592V13.9927C26.2802 13.7574 26.0894 13.5667 25.8544 13.5667C25.6195 13.5667 25.4287 13.7574 25.4287 13.9927V15.3592C25.4287 15.5945 25.6195 15.7853 25.8544 15.7853C26.0894 15.7853 26.2802 15.5945 26.2802 15.3592Z" fill="#303030"/>
<path d="M32.9393 15.9897V14.6228C32.9393 14.3876 32.7486 14.1968 32.5136 14.1968C32.2787 14.1968 32.0879 14.3876 32.0879 14.6228V15.9897C32.0879 16.225 32.2787 16.4157 32.5136 16.4157C32.7486 16.4157 32.9393 16.225 32.9393 15.9897Z" fill="#303030"/>
<path d="M13.0849 11.7033C13.3198 11.7033 13.5106 11.5125 13.5106 11.2772V9.91068C13.5106 9.6754 13.3198 9.48462 13.0849 9.48462C12.85 9.48462 12.6592 9.6754 12.6592 9.91068V11.2772C12.6592 11.5125 12.85 11.7033 13.0849 11.7033Z" fill="#303030"/>
<path d="M19.1948 9.54712C18.9598 9.54712 18.769 9.7379 18.769 9.97318V11.3397C18.769 11.575 18.9598 11.7658 19.1948 11.7658C19.4297 11.7658 19.6205 11.575 19.6205 11.3397V9.97318C19.6205 9.7379 19.4297 9.54712 19.1948 9.54712Z" fill="#303030"/>
<path d="M25.8549 8.57275C25.62 8.57275 25.4292 8.76354 25.4292 8.99882V10.3653C25.4292 10.6006 25.62 10.7914 25.8549 10.7914C26.0899 10.7914 26.2807 10.6006 26.2807 10.3653V8.99882C26.2807 8.76354 26.0899 8.57275 25.8549 8.57275Z" fill="#303030"/>
<path d="M32.5136 9.5498C32.2787 9.5498 32.0879 9.74059 32.0879 9.97587V11.3424C32.0879 11.5777 32.2787 11.7684 32.5136 11.7684C32.7486 11.7684 32.9393 11.5777 32.9393 11.3424V9.97587C32.9393 9.74059 32.7486 9.5498 32.5136 9.5498Z" fill="#303030"/>
<path d="M19.1953 7.17869C19.4302 7.17869 19.621 6.9879 19.621 6.75263V5.38578C19.621 5.1505 19.4302 4.95972 19.1953 4.95972C18.9603 4.95972 18.7695 5.1505 18.7695 5.38578V6.75263C18.7695 6.9879 18.9603 7.17869 19.1953 7.17869Z" fill="#303030"/>
<path d="M25.8544 5.82874C26.0894 5.82874 26.2802 5.63796 26.2802 5.40268V4.03617C26.2802 3.80089 26.0894 3.61011 25.8544 3.61011C25.6195 3.61011 25.4287 3.80089 25.4287 4.03617V5.40268C25.4287 5.63796 25.6195 5.82874 25.8544 5.82874Z" fill="#303030"/>
<path d="M32.5126 7.17967C32.7476 7.17967 32.9384 6.98888 32.9384 6.7536V5.38676C32.9384 5.15148 32.7476 4.96069 32.5126 4.96069C32.2777 4.96069 32.0869 5.15148 32.0869 5.38676V6.7536C32.0869 6.98888 32.2777 7.17967 32.5126 7.17967Z" fill="#303030"/>
<path d="M38.6035 19.3005C38.3685 19.3005 38.1777 19.4913 38.1777 19.7263V21.0928C38.1777 21.3277 38.3685 21.5185 38.6035 21.5185C38.8384 21.5185 39.0292 21.3277 39.0292 21.0928V19.7263C39.0292 19.4913 38.8384 19.3005 38.6035 19.3005Z" fill="#303030"/>
<path d="M38.4352 27.7474C38.386 27.7689 38.3361 27.8043 38.3008 27.8397C38.2155 27.925 38.1733 28.0319 38.1733 28.1455C38.1733 28.2591 38.2155 28.3652 38.3008 28.4434C38.3361 28.4856 38.386 28.5142 38.4352 28.5358C38.4851 28.5567 38.5421 28.5712 38.5987 28.5712C38.7123 28.5712 38.8185 28.5213 38.8967 28.4438C38.982 28.3656 39.0241 28.2587 39.0241 28.1458C39.0241 28.0329 38.982 27.9253 38.8967 27.8401C38.7831 27.7265 38.5917 27.684 38.4349 27.7477L38.4352 27.7474Z" fill="#303030"/>
<path d="M38.6025 14.6414C38.3675 14.6414 38.1768 14.8321 38.1768 15.0674V16.4343C38.1768 16.6695 38.3675 16.8603 38.6025 16.8603C38.8374 16.8603 39.0282 16.6695 39.0282 16.4343V15.0674C39.0282 14.8321 38.8374 14.6414 38.6025 14.6414Z" fill="#303030"/>
<path d="M38.601 11.7028C38.836 11.7028 39.0267 11.512 39.0267 11.2767V9.91019C39.0267 9.67491 38.836 9.48413 38.601 9.48413C38.3661 9.48413 38.1753 9.67491 38.1753 9.91019V11.2767C38.1753 11.512 38.3661 11.7028 38.601 11.7028Z" fill="#303030"/>
</svg>
